<svg width="249" height="238" viewBox="0 0 249 238" fill="none" xmlns="http://www.w3.org/2000/svg">
<path d="M249 119C249 184.722 195.722 238 130 238C64.2781 238 11 184.722 11 119C11 53.2781 64.2781 0 130 0C195.722 0 249 53.2781 249 119Z" fill="#9A5D41"/>
<path d="M153.999 91.4901C154.361 91.3027 154.692 91.209 154.993 91.209C155.324 91.209 155.58 91.3339 155.76 91.5838C155.941 91.8024 156.031 92.0835 156.031 92.427C156.031 92.8643 155.866 93.364 155.535 93.9261C155.203 94.4571 154.692 94.9411 153.999 95.3784C152.254 96.6276 150.493 97.7988 148.717 98.8919C146.971 99.985 145.181 101.016 143.345 101.984C141.779 102.827 140.124 103.639 138.378 104.42C136.633 105.201 134.842 105.903 133.006 106.528C131.2 107.153 129.364 107.652 127.498 108.027C125.662 108.402 123.871 108.589 122.125 108.589C121.884 108.589 121.628 108.589 121.358 108.589C121.117 108.589 120.876 108.574 120.635 108.542C118.859 110.947 117.354 112.977 116.12 114.632C114.886 116.288 113.803 117.74 112.87 118.989C111.967 120.27 111.154 121.41 110.432 122.409C109.709 123.408 108.957 124.439 108.174 125.501C107.392 126.594 106.519 127.796 105.556 129.108C104.623 130.42 103.479 131.997 102.125 133.84C108.054 134.87 113.968 136.01 119.868 137.259C125.767 138.54 131.471 139.742 136.979 140.867C142.487 141.991 147.709 142.928 152.645 143.677C157.611 144.458 162.126 144.864 166.189 144.896C166.942 144.896 167.499 145.036 167.86 145.317C168.251 145.598 168.447 145.926 168.447 146.301C168.447 146.926 167.98 147.519 167.047 148.081C166.144 148.674 164.73 148.971 162.803 148.971C158.59 148.877 153.984 148.425 148.988 147.613C143.992 146.801 138.755 145.832 133.277 144.708C127.799 143.615 122.17 142.444 116.391 141.195C110.612 139.977 104.848 138.899 99.0996 137.962L98.1064 139.321C93.5013 145.536 89.1821 151.095 85.1489 155.998C81.1458 160.902 77.3083 165.055 73.6362 168.459C69.9943 171.864 66.4878 174.471 63.1168 176.283C59.7758 178.094 56.48 179 53.2294 179C49.2263 179 45.8101 178.625 42.9808 177.876C40.1515 177.157 37.849 176.158 36.0732 174.877C34.2673 173.597 32.958 172.082 32.1453 170.333C31.3025 168.616 30.8812 166.757 30.8812 164.759C30.8812 162.385 31.4079 159.886 32.4613 157.263C33.5148 154.671 34.9746 152.11 36.8407 149.58C38.7068 147.05 40.919 144.646 43.4774 142.366C46.0358 140.086 48.8199 138.071 51.8298 136.323C54.8396 134.605 58 133.231 61.3108 132.2C64.6518 131.169 68.0379 130.654 71.4691 130.654C75.412 130.654 79.4001 130.841 83.4333 131.216C87.4665 131.622 91.6352 132.153 95.9393 132.809C96.9024 131.497 97.7301 130.373 98.4224 129.436C99.1147 128.499 99.7919 127.578 100.454 126.672C101.146 125.798 101.884 124.861 102.666 123.861C103.449 122.862 104.412 121.628 105.556 120.16C106.7 118.724 108.069 116.975 109.664 114.914C111.29 112.883 113.276 110.385 115.624 107.418C115.052 107.168 114.495 106.918 113.953 106.668C113.442 106.387 112.945 106.091 112.463 105.778C109.153 108.371 105.977 110.588 102.937 112.431C99.8972 114.305 97.0078 115.835 94.2688 117.022C91.5298 118.208 88.9263 119.067 86.4582 119.598C84.0202 120.16 81.7327 120.441 79.5957 120.441C76.0742 120.441 72.944 119.77 70.205 118.427C67.4961 117.084 65.2086 115.226 63.3425 112.852C61.5065 110.479 60.1069 107.699 59.1437 104.514C58.1806 101.297 57.699 97.8144 57.699 94.0667C57.699 90.6312 58.0903 87.0709 58.8729 83.3856C59.6855 79.7003 60.9948 75.9994 62.8007 72.2829C64.6066 68.5351 66.9844 64.8186 69.9341 61.1333C72.9139 57.448 76.5558 53.8877 80.8599 50.4523C85.1941 46.9856 90.2657 43.6907 96.0747 40.5676C101.884 37.4444 108.551 34.5712 116.075 31.9477C113.728 30.8234 110.989 29.8709 107.858 29.0901C104.728 28.3093 101.252 27.6847 97.4292 27.2162C93.6066 26.7165 89.453 26.3574 84.9683 26.1387C80.5137 25.9201 75.7732 25.8108 70.7468 25.8108C60.6938 25.8108 49.7379 26.1387 37.8791 26.7946C25.9901 27.4505 13.3638 28.2625 0 29.2306C0.150493 29.1057 0.255838 28.9964 0.316035 28.9027C0.346134 28.7778 0.361183 28.6841 0.361183 28.6216C0.361183 28.4655 0.331085 28.3249 0.270887 28.2C0.180592 28.0438 0.135444 27.9189 0.135444 27.8252C0.135444 27.6691 0.255838 27.4661 0.496627 27.2162C0.918007 27.2162 1.32434 27.2318 1.71562 27.2631C2.0768 27.2631 2.46809 27.2631 2.88947 27.2631C5.56824 27.2631 8.50285 27.1694 11.6933 26.982C14.8537 26.7634 18.2247 26.4979 21.8064 26.1856C25.3581 25.842 29.1053 25.4985 33.0483 25.155C36.9611 24.7802 41.0093 24.4366 45.193 24.1243C49.3768 23.7808 53.6658 23.5153 58.0602 23.3279C62.4546 23.1093 66.9092 23 71.424 23C79.6108 23 87.7826 23.4529 95.9393 24.3586C104.126 25.233 112.223 26.8883 120.229 29.3243C124.382 27.7315 128.25 26.5135 131.832 25.6703C135.444 24.827 138.935 24.4054 142.306 24.4054C147.754 24.4054 152.464 24.8739 156.437 25.8108C160.41 26.7165 163.691 27.9033 166.28 29.3712C168.898 30.8078 170.84 32.4006 172.104 34.1495C173.368 35.8985 174 37.585 174 39.209C174 40.2709 173.729 41.2703 173.187 42.2072C172.676 43.1441 171.908 43.9718 170.885 44.6901C169.892 45.3772 168.627 45.9237 167.092 46.3297C165.587 46.7357 163.842 46.9387 161.855 46.9387C160.32 46.9387 158.635 46.7826 156.799 46.4703C154.963 46.1267 153.066 45.6895 151.11 45.1586C149.154 44.6276 147.182 44.0186 145.196 43.3315C143.239 42.6444 141.358 41.9417 139.552 41.2234C137.385 40.3802 135.218 39.4901 133.051 38.5532C130.914 37.585 128.747 36.57 126.55 35.5081C119.567 38.2565 113.216 41.2703 107.497 44.5496C101.809 47.7976 96.7068 51.2018 92.192 54.7622C87.7073 58.2913 83.8095 61.9141 80.4987 65.6306C77.1879 69.3159 74.4489 72.97 72.2818 76.5928C70.1147 80.2156 68.4894 83.7447 67.4058 87.1802C66.3524 90.5844 65.8256 93.77 65.8256 96.7369C65.8256 99.0793 66.1116 101.219 66.6834 103.155C67.2854 105.06 68.1884 106.715 69.3923 108.121C70.6264 109.495 72.1764 110.557 74.0425 111.306C75.9087 112.087 78.1059 112.477 80.6341 112.477C84.0353 112.477 88.0083 111.728 92.5532 110.229C97.1282 108.699 102.35 106.216 108.22 102.78C107.527 102.062 107.181 101.344 107.181 100.625C107.181 100.25 107.377 99.7976 107.768 99.2667C108.159 98.7357 108.671 98.236 109.303 97.7676C109.965 97.2679 110.703 96.8462 111.515 96.5027C112.328 96.1279 113.156 95.9405 113.998 95.9405C115.022 95.9405 116.06 96.3465 117.114 97.1586C120.124 95.0973 123.254 92.833 126.504 90.3658C129.755 87.8673 133.201 85.1033 136.843 82.0739L136.663 87.4144L124.428 103.483C124.819 103.577 125.21 103.639 125.601 103.67C125.993 103.701 126.399 103.717 126.82 103.717C128.175 103.717 129.59 103.545 131.064 103.202C132.569 102.858 134.074 102.405 135.579 101.843C137.114 101.25 138.634 100.594 140.139 99.8757C141.644 99.1261 143.074 98.3766 144.428 97.627C146.053 96.7213 147.649 95.7688 149.214 94.7694C150.779 93.7387 152.374 92.6456 153.999 91.4901ZM92.9144 137.025C89.5433 136.557 86.2325 136.182 82.9818 135.901C79.7613 135.651 76.5558 135.526 73.3653 135.526C70.4759 135.526 67.5112 135.963 64.4712 136.838C61.4613 137.744 58.5117 138.946 55.6222 140.445C52.7628 141.975 50.054 143.724 47.4956 145.692C44.9673 147.659 42.7551 149.705 40.8588 151.829C38.9325 153.984 37.4126 156.154 36.2989 158.341C35.1853 160.527 34.6284 162.572 34.6284 164.477C34.6284 165.914 34.9746 167.226 35.6668 168.413C36.3591 169.631 37.4577 170.677 38.9626 171.551C40.4375 172.457 42.3638 173.16 44.7416 173.659C47.1194 174.159 50.0088 174.409 53.41 174.409C56.1489 174.409 58.8277 173.769 61.4463 172.488C64.095 171.208 66.6383 169.521 69.0763 167.429C71.5143 165.368 73.8469 163.025 76.0742 160.402C78.3015 157.778 80.3783 155.139 82.3046 152.485C84.261 149.83 86.0519 147.269 87.6772 144.802C89.3025 142.335 90.7322 140.211 91.9663 138.431L92.9144 137.025ZM163.3 43.7063C165.196 43.7063 166.551 43.4721 167.363 43.0036C168.206 42.5039 168.627 41.848 168.627 41.036C168.627 40.3489 168.341 39.5838 167.77 38.7405C167.228 37.8973 166.475 37.0541 165.512 36.2108C164.549 35.3363 163.42 34.4931 162.126 33.6811C160.832 32.8691 159.432 32.1508 157.927 31.5261C156.453 30.9015 154.902 30.4018 153.277 30.027C151.682 29.621 150.102 29.418 148.537 29.418C146.941 29.418 145.421 29.4961 143.977 29.6523C142.532 29.7772 141.117 29.9958 139.733 30.3081C138.348 30.5892 136.964 30.964 135.579 31.4324C134.225 31.8697 132.825 32.385 131.38 32.9784C132.043 33.2595 133.066 33.7279 134.45 34.3838C135.865 35.0084 137.49 35.7267 139.326 36.5387C141.193 37.3195 143.194 38.1315 145.331 38.9748C147.498 39.818 149.65 40.5988 151.787 41.3171C153.924 42.0042 155.986 42.582 157.972 43.0505C159.989 43.4877 161.765 43.7063 163.3 43.7063ZM128.807 90.7874C127.182 92.4739 125.586 94.0667 124.021 95.5658C122.486 97.0336 120.951 98.4703 119.416 99.8757L119.687 100.25C119.807 100.407 119.928 100.578 120.048 100.766C120.169 100.922 120.304 101.078 120.455 101.234L128.807 90.7874Z" fill="#E7E2DC"/>
<path d="M192.825 174.364C193.18 174.27 193.485 174.258 193.74 174.328C194.02 174.405 194.203 174.584 194.291 174.864C194.386 175.114 194.389 175.402 194.299 175.729C194.184 176.145 193.913 176.582 193.485 177.039C193.066 177.467 192.506 177.809 191.805 178.063C189.627 178.805 187.444 179.418 185.254 179.902C183.091 180.393 180.927 180.835 178.762 181.23C177.013 181.61 175.178 181.952 173.258 182.254C171.347 182.526 169.417 182.714 167.47 182.817C165.557 182.897 163.647 182.866 161.74 182.724C159.858 182.589 158.077 182.289 156.395 181.826C155.707 181.636 155.053 181.424 154.433 181.189C153.82 180.924 153.233 180.619 152.671 180.272C151.994 181.236 151.191 182.31 150.262 183.492C149.35 184.712 148.421 185.894 147.475 187.04C146.52 188.216 145.62 189.294 144.774 190.276C143.919 191.287 143.253 192.063 142.776 192.603C141.973 193.724 140.997 194.43 139.848 194.721C138.725 195.019 137.615 195.017 136.52 194.715C135.959 194.56 135.44 194.305 134.962 193.95C134.502 193.631 134.117 193.237 133.808 192.768C133.499 192.299 133.286 191.777 133.171 191.202C133.081 190.634 133.126 190.023 133.306 189.369C133.412 188.983 133.545 188.699 133.704 188.52C134.231 187.802 134.984 186.81 135.963 185.545C136.942 184.281 138.009 182.896 139.164 181.392C140.319 179.888 141.486 178.34 142.665 176.746C143.852 175.123 144.91 173.625 145.837 172.25C145.698 171.956 145.633 171.698 145.639 171.476C145.679 171.231 145.732 170.99 145.797 170.752C145.92 170.306 146.183 169.899 146.586 169.531C146.989 169.162 147.579 168.813 148.355 168.484C150.029 166.388 151.691 164.336 153.341 162.329C154.999 160.292 156.535 158.398 157.95 156.646C159.365 154.894 160.608 153.318 161.679 151.919C162.775 150.527 163.586 149.424 164.112 148.609C162.465 148.123 161.035 147.393 159.823 146.42C158.619 145.417 157.664 144.258 156.957 142.944C156.284 141.608 155.868 140.134 155.709 138.524C155.575 136.921 155.75 135.242 156.233 133.489C156.88 131.142 157.865 129.111 159.187 127.398C160.534 125.691 162.046 124.333 163.722 123.325C165.398 122.316 167.154 121.665 168.989 121.372C170.858 121.055 172.62 121.126 174.276 121.582C176.492 122.193 178.169 123.119 179.308 124.36C180.454 125.571 181.221 126.965 181.608 128.543C182.021 130.127 182.118 131.816 181.897 133.61C181.702 135.41 181.368 137.172 180.893 138.896C180.581 140.025 180.138 141.086 179.563 142.078C178.996 143.041 178.42 143.937 177.835 144.767C177.284 145.574 176.766 146.31 176.281 146.976C175.804 147.612 175.5 148.168 175.369 148.643L175.307 148.866C176.579 149.025 178.157 149.268 180.04 149.595C181.949 149.929 184.053 150.253 186.351 150.567C188.649 150.881 191.061 151.13 193.587 151.315C196.138 151.507 198.688 151.554 201.236 151.457C203.785 151.36 206.263 151.069 208.673 150.582C211.082 150.095 213.298 149.315 215.321 148.242C217.343 147.169 219.104 145.752 220.604 143.991C222.103 142.231 223.213 140.043 223.934 137.428C224.458 135.527 224.279 133.591 223.397 131.621C222.523 129.622 221.158 127.663 219.302 125.745C217.446 123.826 215.201 121.977 212.567 120.196C209.959 118.422 207.19 116.78 204.263 115.269C201.36 113.766 198.4 112.422 195.382 111.239C192.398 110.033 189.581 109.064 186.932 108.334C183.952 107.512 180.759 106.712 177.356 105.934C173.96 105.126 170.545 104.488 167.111 104.021C163.702 103.561 160.358 103.359 157.081 103.415C153.829 103.477 150.831 103.962 148.087 104.868C145.377 105.751 143.023 107.133 141.024 109.012C139.026 110.891 137.585 113.435 136.7 116.644C136.463 117.505 136.643 118.242 137.242 118.855C137.849 119.438 138.663 119.966 139.684 120.439C140.704 120.912 141.823 121.38 143.038 121.843C144.262 122.277 145.368 122.789 146.356 123.381C147.352 123.944 148.125 124.62 148.674 125.411C149.224 126.202 149.339 127.177 149.019 128.336C148.88 128.841 148.302 129.097 147.286 129.105C146.278 129.083 145.048 128.872 143.596 128.471C142.551 128.183 141.451 127.8 140.295 127.321C139.138 126.843 138.002 126.29 136.887 125.663C135.78 125.006 134.731 124.285 133.741 123.501C132.777 122.724 131.964 121.892 131.304 121.007C130.652 120.092 130.189 119.133 129.918 118.131C129.646 117.129 129.657 116.093 129.952 115.023C130.705 112.29 131.857 110.001 133.406 108.159C134.99 106.293 136.847 104.775 138.979 103.604C141.144 102.411 143.533 101.551 146.145 101.024C148.766 100.467 151.486 100.146 154.305 100.06C157.159 99.9512 160.056 100.03 162.998 100.298C165.964 100.572 168.86 100.955 171.685 101.446C174.544 101.914 177.26 102.455 179.832 103.068C182.429 103.688 184.785 104.289 186.9 104.872C189.345 105.546 191.923 106.337 194.633 107.244C197.377 108.128 200.131 109.127 202.894 110.24C205.657 111.353 208.366 112.564 211.021 113.871C213.701 115.185 216.217 116.598 218.569 118.11C220.929 119.591 223.057 121.169 224.953 122.843C226.883 124.494 228.462 126.224 229.69 128.033C230.944 129.849 231.791 131.745 232.234 133.721C232.676 135.698 232.606 137.74 232.024 139.85C231.336 142.346 230.226 144.486 228.693 146.269C227.168 148.023 225.339 149.485 223.207 150.656C221.101 151.833 218.725 152.745 216.08 153.391C213.469 154.014 210.721 154.439 207.835 154.667C204.949 154.894 201.972 154.953 198.905 154.843C195.863 154.74 192.85 154.533 189.866 154.222C186.907 153.918 184.037 153.542 181.255 153.095C178.472 152.648 175.898 152.194 173.53 151.733C172.858 152.283 171.936 153.292 170.764 154.759C169.617 156.233 168.296 157.995 166.799 160.044C165.31 162.064 163.696 164.288 161.958 166.718C160.227 169.119 158.467 171.527 156.677 173.943C157.094 175.113 157.726 176.054 158.571 176.767C159.45 177.457 160.475 177.963 161.647 178.286C162.997 178.658 164.456 178.885 166.024 178.965C167.617 179.053 169.239 179.036 170.889 178.915C172.573 178.772 174.248 178.563 175.914 178.286C177.614 177.988 179.25 177.671 180.822 177.337C182.766 176.946 184.74 176.499 186.742 175.996C188.753 175.463 190.781 174.919 192.825 174.364ZM165.779 146.143C166.682 144.954 167.67 143.707 168.742 142.404C169.847 141.079 170.902 139.739 171.906 138.385C172.935 137.038 173.85 135.708 174.65 134.394C175.451 133.08 176.019 131.814 176.355 130.596C176.814 128.932 176.826 127.496 176.391 126.289C175.99 125.06 174.898 124.199 173.114 123.708C171.611 123.293 170.09 123.194 168.551 123.409C167.037 123.631 165.602 124.163 164.246 125.004C162.924 125.822 161.74 126.935 160.695 128.341C159.675 129.754 158.895 131.441 158.354 133.402C157.912 135.007 157.773 136.503 157.939 137.892C158.112 139.251 158.526 140.484 159.18 141.591C159.843 142.669 160.737 143.603 161.862 144.392C162.996 145.152 164.301 145.736 165.779 146.143Z" fill="#E7E2DC"/>
</svg>
