<svg width="299" height="41" viewBox="0 0 299 41" fill="none" xmlns="http://www.w3.org/2000/svg">
<path d="M42.4312 17.9829C42.5288 17.9341 42.6183 17.9097 42.6997 17.9097C42.7892 17.9097 42.8584 17.9422 42.9072 18.0073C42.9561 18.0643 42.9805 18.1375 42.9805 18.2271C42.9805 18.341 42.9357 18.4712 42.8462 18.6177C42.7567 18.756 42.6183 18.8822 42.4312 18.9961C41.9591 19.3216 41.4831 19.6268 41.0029 19.9116C40.5309 20.1965 40.0467 20.465 39.5503 20.7173C39.1271 20.937 38.6795 21.1486 38.2075 21.3521C37.7355 21.5555 37.2513 21.7386 36.7549 21.9014C36.2666 22.0641 35.7702 22.1943 35.2656 22.292C34.7692 22.3896 34.285 22.4385 33.813 22.4385C33.7479 22.4385 33.6787 22.4385 33.6055 22.4385C33.5404 22.4385 33.4753 22.4344 33.4102 22.4263C32.93 23.0529 32.5231 23.5819 32.1895 24.0132C31.8558 24.4445 31.5628 24.8229 31.3105 25.1484C31.0664 25.4821 30.8467 25.7791 30.6514 26.0396C30.4561 26.3 30.2526 26.5685 30.041 26.8452C29.8294 27.13 29.5934 27.4434 29.333 27.7852C29.0807 28.127 28.7715 28.5379 28.4053 29.0181C30.0085 29.2866 31.6076 29.5837 33.2026 29.9092C34.7977 30.2428 36.3398 30.5562 37.8291 30.8491C39.3184 31.1421 40.7303 31.3862 42.0649 31.5815C43.4077 31.785 44.6284 31.8908 45.7271 31.8989C45.9305 31.8989 46.0811 31.9355 46.1787 32.0088C46.2845 32.082 46.3374 32.1675 46.3374 32.2651C46.3374 32.4279 46.2113 32.5825 45.959 32.729C45.7148 32.8836 45.3324 32.9609 44.8115 32.9609C43.6722 32.9365 42.4271 32.8185 41.0762 32.6069C39.7253 32.3953 38.3092 32.1431 36.8281 31.8501C35.347 31.5653 33.8252 31.2601 32.2627 30.9346C30.7002 30.6172 29.1418 30.3364 27.5874 30.0923L27.3188 30.4463C26.0737 32.0658 24.9059 33.5143 23.8154 34.792C22.7331 36.0697 21.6955 37.152 20.7026 38.0391C19.7179 38.9261 18.7699 39.6056 17.8584 40.0776C16.9551 40.5496 16.064 40.7856 15.1851 40.7856C14.1027 40.7856 13.179 40.688 12.4141 40.4927C11.6491 40.3055 11.0265 40.0451 10.5464 39.7114C10.0581 39.3778 9.7041 38.9831 9.48438 38.5273C9.25651 38.0798 9.14258 37.5955 9.14258 37.0747C9.14258 36.4562 9.28499 35.8052 9.56982 35.1216C9.85465 34.4461 10.2493 33.7788 10.7539 33.1196C11.2585 32.4604 11.8566 31.8338 12.5483 31.2397C13.2401 30.6457 13.9928 30.1208 14.8066 29.665C15.6204 29.2174 16.4749 28.8594 17.3701 28.5908C18.2734 28.3223 19.189 28.188 20.1167 28.188C21.1828 28.188 22.2611 28.2368 23.3516 28.3345C24.4421 28.4403 25.5692 28.5786 26.7329 28.7495C26.9933 28.4077 27.2171 28.1147 27.4043 27.8706C27.5915 27.6265 27.7746 27.3864 27.9536 27.1504C28.1408 26.9225 28.3402 26.6784 28.5518 26.418C28.7633 26.1576 29.0238 25.8361 29.333 25.4536C29.6423 25.0793 30.0125 24.6235 30.4438 24.0864C30.8833 23.5575 31.4204 22.9064 32.0552 22.1333C31.9006 22.0682 31.75 22.0031 31.6035 21.938C31.4652 21.8647 31.3309 21.7874 31.2007 21.7061C30.3055 22.3815 29.4469 22.9593 28.625 23.4395C27.8031 23.9277 27.0218 24.3265 26.2812 24.6357C25.5407 24.945 24.8368 25.1688 24.1694 25.3071C23.5103 25.4536 22.8918 25.5269 22.314 25.5269C21.3618 25.5269 20.5155 25.3519 19.7749 25.002C19.0425 24.652 18.424 24.1678 17.9194 23.5493C17.423 22.9308 17.0446 22.2065 16.7842 21.3765C16.5238 20.5382 16.3936 19.6309 16.3936 18.6543C16.3936 17.7591 16.4993 16.8314 16.7109 15.8711C16.9307 14.9108 17.2847 13.9465 17.7729 12.978C18.2612 12.0015 18.9041 11.033 19.7017 10.0728C20.5073 9.11247 21.492 8.18473 22.6558 7.28955C23.8276 6.38623 25.1989 5.52767 26.7695 4.71387C28.3402 3.90007 30.1427 3.15137 32.1772 2.46777C31.5425 2.1748 30.8019 1.9266 29.9556 1.72314C29.1092 1.51969 28.1693 1.35693 27.1357 1.23486C26.1022 1.10465 24.9792 1.01107 23.7666 0.954102C22.5622 0.897135 21.2804 0.868652 19.9214 0.868652C17.2033 0.868652 14.241 0.954102 11.0347 1.125C7.82015 1.2959 4.40625 1.50749 0.792969 1.75977C0.833659 1.72721 0.862142 1.69873 0.878418 1.67432C0.886556 1.64176 0.890625 1.61735 0.890625 1.60107C0.890625 1.56038 0.882487 1.52376 0.866211 1.49121C0.841797 1.45052 0.82959 1.41797 0.82959 1.39355C0.82959 1.35286 0.862142 1.29997 0.927246 1.23486C1.04118 1.23486 1.15104 1.23893 1.25684 1.24707C1.35449 1.24707 1.46029 1.24707 1.57422 1.24707C2.2985 1.24707 3.09196 1.22266 3.95459 1.17383C4.80908 1.11686 5.72054 1.04769 6.68896 0.966309C7.64925 0.87679 8.66243 0.787272 9.72852 0.697754C10.7865 0.600098 11.881 0.510579 13.0122 0.429199C14.1434 0.339681 15.3031 0.270508 16.4912 0.22168C17.6794 0.164714 18.8838 0.13623 20.1045 0.13623C22.318 0.13623 24.5275 0.254232 26.7329 0.490234C28.9465 0.718099 31.1356 1.14941 33.3003 1.78418C34.4233 1.36914 35.4691 1.05176 36.4375 0.832031C37.4141 0.612305 38.3581 0.502441 39.2695 0.502441C40.7425 0.502441 42.0161 0.624512 43.0903 0.868652C44.1646 1.10465 45.0516 1.4139 45.7515 1.79639C46.4595 2.17074 46.9844 2.58577 47.3262 3.0415C47.668 3.49723 47.8389 3.93669 47.8389 4.35986C47.8389 4.63656 47.7656 4.89697 47.6191 5.14111C47.4808 5.38525 47.2733 5.60091 46.9966 5.78809C46.728 5.96712 46.3862 6.10954 45.9712 6.21533C45.5643 6.32113 45.0923 6.37402 44.5552 6.37402C44.1401 6.37402 43.6844 6.33333 43.188 6.25195C42.6916 6.16243 42.1789 6.0485 41.6499 5.91016C41.1209 5.77181 40.5879 5.61312 40.0508 5.43408C39.5218 5.25505 39.0132 5.07194 38.5249 4.88477C37.939 4.66504 37.353 4.43311 36.7671 4.18896C36.1893 3.93669 35.6034 3.6722 35.0093 3.39551C33.1213 4.11165 31.4041 4.89697 29.8579 5.75146C28.3198 6.59782 26.9404 7.48486 25.7197 8.4126C24.5072 9.33219 23.4533 10.2762 22.5581 11.2446C21.6629 12.2049 20.9224 13.1571 20.3364 14.1011C19.7505 15.0451 19.311 15.9647 19.0181 16.8599C18.7332 17.7469 18.5908 18.577 18.5908 19.3501C18.5908 19.9604 18.6681 20.5179 18.8228 21.0225C18.9855 21.5189 19.2297 21.9502 19.5552 22.3164C19.8888 22.6745 20.3079 22.9512 20.8125 23.1465C21.3171 23.3499 21.9111 23.4517 22.5947 23.4517C23.5143 23.4517 24.5885 23.2563 25.8174 22.8657C27.0544 22.467 28.4663 21.82 30.0532 20.9248C29.866 20.7376 29.7725 20.5505 29.7725 20.3633C29.7725 20.2656 29.8254 20.1476 29.9312 20.0093C30.0369 19.8709 30.1753 19.7407 30.3462 19.6187C30.5252 19.4884 30.7246 19.3786 30.9443 19.2891C31.1641 19.1914 31.3879 19.1426 31.6157 19.1426C31.8924 19.1426 32.1732 19.2484 32.458 19.46C33.2718 18.9229 34.1182 18.3328 34.9971 17.6899C35.876 17.0389 36.8078 16.3187 37.7925 15.5293L37.7437 16.9209L34.4355 21.1079C34.5413 21.1323 34.6471 21.1486 34.7529 21.1567C34.8587 21.1649 34.9686 21.1689 35.0825 21.1689C35.4487 21.1689 35.8312 21.1242 36.23 21.0347C36.6369 20.9451 37.0438 20.8271 37.4507 20.6807C37.8657 20.526 38.2767 20.3551 38.6836 20.168C39.0905 19.9727 39.4771 19.7773 39.8433 19.582C40.2827 19.346 40.714 19.0978 41.1372 18.8374C41.5604 18.5688 41.9917 18.284 42.4312 17.9829ZM25.915 29.8481C25.0036 29.7261 24.1084 29.6284 23.2295 29.5552C22.3587 29.4901 21.492 29.4575 20.6294 29.4575C19.8481 29.4575 19.0465 29.5715 18.2246 29.7993C17.4108 30.0353 16.6133 30.3486 15.832 30.7393C15.0589 31.138 14.3265 31.5938 13.6348 32.1064C12.9512 32.6191 12.353 33.1522 11.8403 33.7056C11.3195 34.2671 10.9085 34.8327 10.6074 35.4023C10.3063 35.972 10.1558 36.505 10.1558 37.0015C10.1558 37.3758 10.2493 37.7176 10.4365 38.0269C10.6237 38.3442 10.9207 38.6169 11.3276 38.8447C11.7264 39.0807 12.2472 39.2638 12.8901 39.394C13.533 39.5243 14.3143 39.5894 15.2339 39.5894C15.9744 39.5894 16.6987 39.4225 17.4067 39.0889C18.1229 38.7552 18.8105 38.3158 19.4697 37.7705C20.1289 37.2334 20.7596 36.623 21.3618 35.9395C21.964 35.2559 22.5256 34.5682 23.0464 33.8765C23.5754 33.1847 24.0596 32.5174 24.499 31.8745C24.9385 31.2316 25.325 30.6782 25.6587 30.2144L25.915 29.8481ZM44.9458 5.53174C45.4585 5.53174 45.8247 5.4707 46.0444 5.34863C46.2723 5.21842 46.3862 5.04753 46.3862 4.83594C46.3862 4.6569 46.3089 4.45752 46.1543 4.23779C46.0078 4.01807 45.8044 3.79834 45.5439 3.57861C45.2835 3.35075 44.9784 3.13102 44.6284 2.91943C44.2785 2.70785 43.9001 2.52067 43.4932 2.35791C43.0944 2.19515 42.6753 2.06494 42.2358 1.96729C41.8045 1.86149 41.3773 1.80859 40.9541 1.80859C40.5228 1.80859 40.1118 1.82894 39.7212 1.86963C39.3306 1.90218 38.9481 1.95915 38.5737 2.04053C38.1994 2.11377 37.825 2.21143 37.4507 2.3335C37.0845 2.44743 36.7061 2.58171 36.3154 2.73633C36.4945 2.80957 36.7712 2.93164 37.1455 3.10254C37.528 3.2653 37.9674 3.45247 38.4639 3.66406C38.9684 3.86751 39.5096 4.0791 40.0874 4.29883C40.6733 4.51855 41.2552 4.72201 41.833 4.90918C42.4108 5.08822 42.9683 5.23877 43.5054 5.36084C44.0506 5.47477 44.5308 5.53174 44.9458 5.53174ZM35.6196 17.7998C35.1802 18.2393 34.7489 18.6543 34.3257 19.0449C33.9106 19.4274 33.4956 19.8018 33.0806 20.168L33.1538 20.2656C33.1864 20.3063 33.2189 20.3511 33.2515 20.3999C33.284 20.4406 33.3206 20.4813 33.3613 20.522L35.6196 17.7998Z" fill="#9A5D41"/>
<path d="M56.1641 18.9961C54.9027 19.7204 53.8325 20.3511 52.9536 20.8882C52.0747 21.4172 51.326 21.8566 50.7075 22.2065C50.089 22.5483 49.5641 22.8047 49.1328 22.9756C48.7096 23.1383 48.3231 23.2197 47.9731 23.2197C47.6313 23.2197 47.3384 23.179 47.0942 23.0977C46.8582 23.0163 46.6629 22.9064 46.5083 22.7681C46.3537 22.6297 46.2397 22.4629 46.1665 22.2676C46.1014 22.0723 46.0688 21.8607 46.0688 21.6328C46.0688 21.4619 46.1055 21.2869 46.1787 21.1079C46.252 20.9289 46.3415 20.7458 46.4473 20.5586C46.5612 20.3714 46.6792 20.1761 46.8013 19.9727C46.9233 19.7611 47.0373 19.5373 47.1431 19.3013L48.9985 15.1509L42.4434 18.9961C42.3376 19.0368 42.2643 19.0571 42.2236 19.0571C42.126 19.0571 42.0405 19.0246 41.9673 18.9595C41.8859 18.8944 41.8452 18.8089 41.8452 18.7031C41.8452 18.6055 41.89 18.4956 41.9795 18.3735C42.0609 18.2515 42.2155 18.1213 42.4434 17.9829L45.605 16.1396C46.02 15.8955 46.4391 15.6514 46.8623 15.4072C47.2855 15.1631 47.6802 14.9352 48.0464 14.7236C48.4207 14.512 48.7544 14.3249 49.0474 14.1621C49.3485 13.9912 49.5804 13.861 49.7432 13.7715H51.3179C51.3504 13.7959 51.3789 13.8366 51.4033 13.8936C51.4277 13.9505 51.4399 14.036 51.4399 14.1499C51.4399 14.3615 51.3789 14.6626 51.2568 15.0532C51.1348 15.4357 50.9801 15.867 50.793 16.3472C50.6139 16.8273 50.4105 17.3319 50.1826 17.8608C49.9629 18.3817 49.7554 18.8781 49.5601 19.3501C49.3647 19.814 49.1613 20.2778 48.9497 20.7417C48.7381 21.2056 48.5265 21.6816 48.3149 22.1699C48.5347 22.1699 48.8805 22.0601 49.3525 21.8403C49.8327 21.6206 50.4105 21.3236 51.0859 20.9492C51.7695 20.5667 52.5386 20.1232 53.3931 19.6187C54.2557 19.106 55.1794 18.5607 56.1641 17.9829C56.1966 17.9504 56.2576 17.9341 56.3472 17.9341C56.4448 17.9341 56.5343 17.9666 56.6157 18.0317C56.7052 18.0968 56.75 18.1864 56.75 18.3003C56.75 18.3979 56.7052 18.5078 56.6157 18.6299C56.5343 18.7438 56.3838 18.8659 56.1641 18.9961ZM52.7949 9.49902C52.8438 9.49902 52.9333 9.50309 53.0635 9.51123C53.2018 9.51123 53.3564 9.51937 53.5273 9.53564C53.6982 9.55192 53.8773 9.5804 54.0645 9.62109C54.2516 9.65365 54.4225 9.70654 54.5771 9.77979C54.7318 9.84489 54.862 9.93034 54.9678 10.0361C55.0736 10.1419 55.1305 10.2721 55.1387 10.4268L53.3687 11.7695L52.563 12.1479C52.4165 12.1479 52.3026 12.1073 52.2212 12.0259C52.1398 11.9445 52.0788 11.859 52.0381 11.7695L52.7949 9.49902Z" fill="#9A5D41"/>
<path d="M62.9146 22.6948C63.2319 22.6541 63.6266 22.528 64.0986 22.3164C64.5706 22.0967 65.0874 21.8159 65.6489 21.4741C66.2104 21.1242 66.7964 20.7214 67.4067 20.2656C68.0252 19.8099 68.6396 19.3216 69.25 18.8008C69.8604 18.2799 70.4504 17.7347 71.02 17.165C71.5978 16.5954 72.1227 16.0257 72.5947 15.4561C72.6273 15.4072 72.6476 15.3218 72.6558 15.1997C72.672 15.0695 72.7046 14.9393 72.7534 14.8091C72.8104 14.6707 72.8958 14.5527 73.0098 14.4551C73.1318 14.3493 73.3149 14.2964 73.5591 14.2964C73.7625 14.2964 73.9253 14.3208 74.0474 14.3696C74.1694 14.4185 74.259 14.4876 74.3159 14.5771C74.381 14.6585 74.4217 14.7603 74.438 14.8823C74.4543 14.9963 74.4624 15.1265 74.4624 15.2729C74.4624 15.4194 74.4258 15.6229 74.3525 15.8833C74.2874 16.1356 74.1979 16.4285 74.084 16.7622C73.9701 17.0877 73.8398 17.4417 73.6934 17.8242C73.5469 18.2067 73.3963 18.5933 73.2417 18.9839C73.0952 19.3664 72.9487 19.7489 72.8022 20.1313C72.6639 20.5057 72.5418 20.8516 72.436 21.1689C72.5418 21.112 72.6965 21.0225 72.8999 20.9004C73.1034 20.7783 73.3353 20.6359 73.5957 20.4731C73.8643 20.3104 74.145 20.1354 74.438 19.9482C74.7391 19.7611 75.0361 19.5739 75.3291 19.3867L77.563 17.9829C77.62 17.9504 77.681 17.9341 77.7461 17.9341C77.8356 17.9341 77.917 17.9707 77.9902 18.0439C78.0635 18.109 78.1001 18.1945 78.1001 18.3003C78.1001 18.4142 78.0553 18.5322 77.9658 18.6543C77.8844 18.7682 77.7502 18.8822 77.563 18.9961L71.8013 22.3774C71.7362 22.4181 71.6711 22.4832 71.606 22.5728C71.549 22.6541 71.4798 22.7355 71.3984 22.8169C71.3252 22.8983 71.2316 22.9674 71.1177 23.0244C71.0119 23.0895 70.8735 23.1221 70.7026 23.1221C70.5399 23.1221 70.4056 23.0814 70.2998 23C70.194 22.9105 70.1411 22.7925 70.1411 22.646C70.1411 22.4588 70.1859 22.2147 70.2754 21.9136C70.373 21.6125 70.491 21.2829 70.6294 20.9248C70.7759 20.5586 70.9386 20.1802 71.1177 19.7896C71.3049 19.3908 71.4839 19.0042 71.6548 18.6299C71.8338 18.2474 71.9966 17.8893 72.1431 17.5557C72.2977 17.2139 72.4198 16.9209 72.5093 16.6768C72.1593 17.1162 71.7484 17.5923 71.2764 18.105C70.8044 18.6177 70.2835 19.1304 69.7139 19.6431C69.1523 20.1476 68.5542 20.64 67.9194 21.1201C67.2847 21.5921 66.6296 22.0112 65.9541 22.3774C65.2786 22.7355 64.5951 23.0244 63.9033 23.2441C63.2116 23.4639 62.5239 23.5737 61.8403 23.5737C61.4497 23.5737 61.1812 23.4679 61.0347 23.2563C60.8882 23.0529 60.8149 22.7762 60.8149 22.4263C60.8149 22.1089 60.8678 21.7345 60.9736 21.3032C61.0794 20.8719 61.2178 20.4121 61.3887 19.9238C61.5596 19.4355 61.7508 18.9351 61.9624 18.4224C62.1821 17.9097 62.3937 17.4173 62.5972 16.9453C62.8088 16.4733 63.0041 16.0339 63.1831 15.627C63.3703 15.2201 63.5208 14.8783 63.6348 14.6016C63.2523 14.805 62.7965 15.0573 62.2676 15.3584C61.7467 15.6595 61.1689 16.0013 60.5342 16.3838C59.8994 16.7581 59.2118 17.1691 58.4712 17.6167C57.7388 18.0562 56.9697 18.516 56.1641 18.9961C56.0745 19.0449 55.9932 19.0693 55.9199 19.0693C55.8223 19.0693 55.7368 19.0368 55.6636 18.9717C55.5903 18.9066 55.5537 18.8211 55.5537 18.7153C55.5537 18.6177 55.6025 18.5078 55.7002 18.3857C55.7897 18.2555 55.9443 18.1213 56.1641 17.9829C57.1976 17.3563 58.1782 16.7826 59.106 16.2617C60.0337 15.7409 60.8719 15.2974 61.6206 14.9312C62.3774 14.5568 63.0203 14.2679 63.5493 14.0645C64.0864 13.8529 64.473 13.7471 64.709 13.7471C65.1973 13.7471 65.5391 13.8447 65.7344 14.04C65.9378 14.2354 66.0396 14.5039 66.0396 14.8457C66.0396 15.1956 65.95 15.6025 65.771 16.0664C65.6001 16.5221 65.3844 16.9982 65.124 17.4946C64.8636 17.991 64.5828 18.4915 64.2817 18.9961C63.9806 19.5007 63.6999 19.9767 63.4395 20.4243C63.179 20.8719 62.9593 21.2707 62.7803 21.6206C62.6094 21.9705 62.5239 22.2391 62.5239 22.4263C62.5239 22.6134 62.6175 22.707 62.8047 22.707C62.8698 22.707 62.9064 22.703 62.9146 22.6948Z" fill="#9A5D41"/>
<path d="M85.7783 15.2241C85.7783 15.5659 85.8027 15.8182 85.8516 15.981C85.9004 16.1437 85.9533 16.2902 86.0103 16.4204C86.0754 16.5425 86.1323 16.6808 86.1812 16.8354C86.2381 16.9819 86.2666 17.2139 86.2666 17.5312C86.2666 17.751 86.2422 17.9992 86.1934 18.2759C86.1527 18.5444 86.0713 18.8252 85.9492 19.1182C85.8271 19.403 85.6562 19.6878 85.4365 19.9727C85.2168 20.2493 84.936 20.4976 84.5942 20.7173L89.3794 17.9829C89.4364 17.9504 89.4933 17.9341 89.5503 17.9341C89.6398 17.9341 89.7171 17.9707 89.7822 18.0439C89.8555 18.109 89.8921 18.1986 89.8921 18.3125C89.8921 18.402 89.8514 18.5119 89.77 18.6421C89.6968 18.7723 89.5666 18.8903 89.3794 18.9961C88.3784 19.5658 87.5158 20.0622 86.7915 20.4854C86.0754 20.9004 85.4609 21.2585 84.9482 21.5596C84.4437 21.8607 84.0286 22.113 83.7031 22.3164C83.3776 22.5117 83.105 22.6745 82.8853 22.8047C82.4946 23.0407 82.1243 23.1994 81.7744 23.2808C81.4245 23.3621 81.0786 23.4028 80.7368 23.4028C80.4764 23.4028 80.2852 23.3581 80.1631 23.2686C80.0492 23.179 79.9922 23.0814 79.9922 22.9756C80.0003 22.8617 80.0654 22.7599 80.1875 22.6704C80.3096 22.5728 80.4845 22.5239 80.7124 22.5239C81.1112 22.5239 81.4977 22.3896 81.8721 22.1211C82.2464 21.8444 82.576 21.4741 82.8608 21.0103C83.1538 20.5382 83.3857 19.9889 83.5566 19.3623C83.7357 18.7357 83.8252 18.0724 83.8252 17.3726C83.8252 17.2668 83.8455 17.0633 83.8862 16.7622C83.9351 16.4611 84.0083 16.1356 84.106 15.7856C84.2036 15.4357 84.3298 15.0939 84.4844 14.7603C84.6471 14.4266 84.8384 14.1743 85.0581 14.0034L77.5752 18.9961C77.4938 19.0531 77.4084 19.0815 77.3188 19.0815C77.2293 19.0815 77.1561 19.049 77.0991 18.9839C77.0422 18.9188 77.0137 18.8374 77.0137 18.7397C77.0137 18.6258 77.0584 18.4997 77.1479 18.3613C77.2293 18.223 77.3717 18.0968 77.5752 17.9829C78.8854 17.0959 79.984 16.3594 80.8711 15.7734C81.7663 15.1794 82.4946 14.6992 83.0562 14.333L84.7651 13.1733C85.0174 13.0675 85.2819 12.9862 85.5586 12.9292C85.8353 12.8641 86.0916 12.8315 86.3276 12.8315C86.5881 12.8315 86.7996 12.8763 86.9624 12.9658C87.1333 13.0472 87.2188 13.1815 87.2188 13.3687C87.2188 13.4338 87.1414 13.5396 86.9868 13.686C86.8403 13.8325 86.6776 13.9993 86.4985 14.1865C86.3195 14.3656 86.1527 14.5487 85.998 14.7358C85.8516 14.923 85.7783 15.0858 85.7783 15.2241Z" fill="#9A5D41"/>
<path d="M102.612 5.97119C102.148 5.97119 101.708 6.06885 101.293 6.26416C100.878 6.45947 100.484 6.72803 100.109 7.06982C99.7432 7.41162 99.3973 7.81852 99.0718 8.29053C98.7463 8.76253 98.4411 9.27116 98.1562 9.81641C97.8714 10.3617 97.6069 10.9354 97.3628 11.5376C97.1268 12.1398 96.9111 12.7461 96.7158 13.3564C97.8145 12.5671 98.7788 11.8184 99.6089 11.1104C100.439 10.4023 101.135 9.75537 101.696 9.16943C102.258 8.5835 102.677 8.06673 102.954 7.61914C103.238 7.16341 103.381 6.79313 103.381 6.5083C103.381 6.34554 103.328 6.21533 103.222 6.11768C103.125 6.02002 102.921 5.97119 102.612 5.97119ZM103.845 13.1733C104.04 13.271 104.138 13.389 104.138 13.5273C104.138 13.7389 104.056 13.9342 103.894 14.1133C103.739 14.2923 103.531 14.4551 103.271 14.6016C103.019 14.7399 102.73 14.862 102.404 14.9678C102.087 15.0736 101.765 15.1631 101.44 15.2363C101.123 15.3096 100.817 15.3665 100.524 15.4072C100.199 15.4479 99.9548 15.4642 99.792 15.4561C99.1572 15.4398 98.5306 15.4276 97.9121 15.4194L96.1177 15.395C95.8735 16.3065 95.6823 17.0877 95.5439 17.7388C95.4056 18.3817 95.2998 18.9432 95.2266 19.4233C95.1615 19.8953 95.1208 20.3063 95.1045 20.6562C95.0882 21.0062 95.0801 21.3439 95.0801 21.6694C95.0801 21.8485 95.1045 21.9909 95.1533 22.0967C95.2021 22.2025 95.2835 22.2554 95.3975 22.2554C95.7962 22.2554 96.2357 22.1211 96.7158 21.8525C97.2041 21.584 97.7493 21.2422 98.3516 20.8271L100.378 19.4478C101.485 18.6909 102.315 18.2026 102.868 17.9829C102.909 17.9666 102.99 17.93 103.112 17.873C103.177 17.8486 103.238 17.8364 103.295 17.8364C103.474 17.8364 103.564 17.93 103.564 18.1172C103.564 18.2393 103.511 18.3817 103.405 18.5444C103.291 18.6991 103.112 18.8496 102.868 18.9961C101.623 19.7448 100.703 20.3307 100.109 20.7539L98.022 22.2676C97.4035 22.707 96.8379 23.057 96.3252 23.3174C95.8044 23.5778 95.2795 23.708 94.7505 23.708C94.2948 23.708 93.9408 23.5859 93.6885 23.3418C93.4443 23.0977 93.2612 22.8006 93.1392 22.4507C93.0252 22.0926 92.9561 21.7101 92.9316 21.3032C92.9072 20.8963 92.895 20.5342 92.895 20.2168C92.895 19.5983 92.9276 18.9839 92.9927 18.3735C93.0659 17.7632 93.1595 17.1772 93.2734 16.6157L91.3569 17.8242L89.3916 18.9961C89.3509 19.0205 89.3062 19.0327 89.2573 19.0327C89.1678 19.0327 89.0824 18.9961 89.001 18.9229C88.9196 18.8415 88.8789 18.7438 88.8789 18.6299C88.8789 18.5404 88.9155 18.4386 88.9888 18.3247C89.062 18.2108 89.1963 18.0968 89.3916 17.9829L91.5522 16.75C92.2358 16.3431 92.895 15.9321 93.5298 15.5171L93.5542 15.4072L91.9917 15.4438C91.9103 15.4438 91.833 15.4479 91.7598 15.4561C91.6865 15.4642 91.6174 15.4683 91.5522 15.4683C91.4139 15.4683 91.3 15.4276 91.2104 15.3462C91.1291 15.2567 91.0802 15.159 91.064 15.0532C91.064 14.9637 91.1331 14.8783 91.2715 14.7969C91.4098 14.7155 91.6051 14.6423 91.8574 14.5771C92.1097 14.5039 92.4108 14.4388 92.7607 14.3818C93.1107 14.3167 93.4972 14.2598 93.9204 14.2109C94.4087 12.681 94.9377 11.3545 95.5073 10.2314C96.077 9.1084 96.7158 8.18066 97.4238 7.44824C98.14 6.71582 98.9375 6.17057 99.8164 5.8125C100.695 5.45443 101.688 5.27539 102.795 5.27539C103.308 5.27539 103.678 5.35677 103.906 5.51953C104.142 5.67415 104.26 5.89388 104.26 6.17871C104.26 6.56934 104.085 7.04134 103.735 7.59473C103.393 8.14811 102.909 8.76253 102.282 9.43799C101.664 10.1053 100.919 10.8174 100.048 11.5742C99.1857 12.3229 98.2295 13.092 97.1797 13.8813C97.7005 13.8325 98.2295 13.7878 98.7666 13.7471L100.354 13.6128C100.874 13.5721 101.383 13.5273 101.879 13.4785C102.384 13.4297 102.864 13.3768 103.32 13.3198C103.409 13.2954 103.474 13.2629 103.515 13.2222C103.556 13.1733 103.625 13.1489 103.723 13.1489C103.755 13.1489 103.796 13.1571 103.845 13.1733Z" fill="#9A5D41"/>
<path d="M116.589 18.9961C115.327 19.7204 114.257 20.3511 113.378 20.8882C112.5 21.4172 111.751 21.8566 111.132 22.2065C110.514 22.5483 109.989 22.8047 109.558 22.9756C109.134 23.1383 108.748 23.2197 108.398 23.2197C108.056 23.2197 107.763 23.179 107.519 23.0977C107.283 23.0163 107.088 22.9064 106.933 22.7681C106.778 22.6297 106.665 22.4629 106.591 22.2676C106.526 22.0723 106.494 21.8607 106.494 21.6328C106.494 21.4619 106.53 21.2869 106.604 21.1079C106.677 20.9289 106.766 20.7458 106.872 20.5586C106.986 20.3714 107.104 20.1761 107.226 19.9727C107.348 19.7611 107.462 19.5373 107.568 19.3013L109.423 15.1509L102.868 18.9961C102.762 19.0368 102.689 19.0571 102.648 19.0571C102.551 19.0571 102.465 19.0246 102.392 18.9595C102.311 18.8944 102.27 18.8089 102.27 18.7031C102.27 18.6055 102.315 18.4956 102.404 18.3735C102.486 18.2515 102.64 18.1213 102.868 17.9829L106.03 16.1396C106.445 15.8955 106.864 15.6514 107.287 15.4072C107.71 15.1631 108.105 14.9352 108.471 14.7236C108.846 14.512 109.179 14.3249 109.472 14.1621C109.773 13.9912 110.005 13.861 110.168 13.7715H111.743C111.775 13.7959 111.804 13.8366 111.828 13.8936C111.853 13.9505 111.865 14.036 111.865 14.1499C111.865 14.3615 111.804 14.6626 111.682 15.0532C111.56 15.4357 111.405 15.867 111.218 16.3472C111.039 16.8273 110.835 17.3319 110.607 17.8608C110.388 18.3817 110.18 18.8781 109.985 19.3501C109.79 19.814 109.586 20.2778 109.375 20.7417C109.163 21.2056 108.951 21.6816 108.74 22.1699C108.959 22.1699 109.305 22.0601 109.777 21.8403C110.257 21.6206 110.835 21.3236 111.511 20.9492C112.194 20.5667 112.963 20.1232 113.818 19.6187C114.681 19.106 115.604 18.5607 116.589 17.9829C116.621 17.9504 116.682 17.9341 116.772 17.9341C116.87 17.9341 116.959 17.9666 117.041 18.0317C117.13 18.0968 117.175 18.1864 117.175 18.3003C117.175 18.3979 117.13 18.5078 117.041 18.6299C116.959 18.7438 116.809 18.8659 116.589 18.9961ZM113.22 9.49902C113.269 9.49902 113.358 9.50309 113.488 9.51123C113.627 9.51123 113.781 9.51937 113.952 9.53564C114.123 9.55192 114.302 9.5804 114.489 9.62109C114.676 9.65365 114.847 9.70654 115.002 9.77979C115.157 9.84489 115.287 9.93034 115.393 10.0361C115.498 10.1419 115.555 10.2721 115.563 10.4268L113.793 11.7695L112.988 12.1479C112.841 12.1479 112.727 12.1073 112.646 12.0259C112.565 11.9445 112.504 11.859 112.463 11.7695L113.22 9.49902Z" fill="#9A5D41"/>
<path d="M150.366 17.9829C150.463 17.9341 150.553 17.9097 150.634 17.9097C150.724 17.9097 150.793 17.9422 150.842 18.0073C150.891 18.0643 150.915 18.1375 150.915 18.2271C150.915 18.341 150.87 18.4712 150.781 18.6177C150.691 18.756 150.553 18.8822 150.366 18.9961C149.78 19.3379 149.182 19.6471 148.571 19.9238C147.969 20.2005 147.363 20.465 146.752 20.7173C146.264 20.937 145.747 21.1527 145.202 21.3643C144.657 21.5677 144.099 21.7508 143.53 21.9136C142.968 22.0682 142.399 22.1943 141.821 22.292C141.251 22.3896 140.698 22.4385 140.161 22.4385C139.941 22.4385 139.729 22.4303 139.526 22.4141C139.322 22.3896 139.123 22.353 138.928 22.3042C138.806 22.5972 138.655 22.9268 138.476 23.293C138.305 23.6673 138.126 24.0335 137.939 24.3916C137.752 24.7578 137.573 25.0955 137.402 25.4048C137.231 25.7222 137.097 25.9663 136.999 26.1372C136.853 26.479 136.621 26.7272 136.303 26.8818C135.994 27.0365 135.664 27.1138 135.314 27.1138C135.135 27.1138 134.96 27.0853 134.79 27.0283C134.627 26.9795 134.48 26.9062 134.35 26.8086C134.22 26.7109 134.114 26.5929 134.033 26.4546C133.959 26.3162 133.923 26.1576 133.923 25.9785C133.923 25.8727 133.939 25.7913 133.972 25.7344C134.069 25.5146 134.212 25.2095 134.399 24.8188C134.586 24.4282 134.79 24.001 135.009 23.5371C135.229 23.0732 135.449 22.5972 135.668 22.1089C135.888 21.6125 136.079 21.1567 136.242 20.7417C136.177 20.6766 136.136 20.6156 136.12 20.5586C136.112 20.4935 136.108 20.4284 136.108 20.3633C136.108 20.2412 136.153 20.1191 136.242 19.9971C136.332 19.875 136.478 19.7448 136.682 19.6064C137.007 18.9554 137.333 18.3166 137.658 17.6899C137.984 17.0552 138.285 16.4652 138.562 15.9199C138.838 15.3747 139.078 14.8864 139.282 14.4551C139.493 14.0238 139.644 13.686 139.733 13.4419C139.204 13.4338 138.72 13.3483 138.281 13.1855C137.841 13.0146 137.463 12.7868 137.146 12.502C136.836 12.209 136.592 11.8631 136.413 11.4644C136.242 11.0656 136.157 10.6261 136.157 10.146C136.157 9.50309 136.283 8.91715 136.535 8.38818C136.796 7.85921 137.133 7.40755 137.548 7.0332C137.963 6.65885 138.431 6.36995 138.952 6.1665C139.481 5.95492 140.01 5.84912 140.539 5.84912C141.247 5.84912 141.821 5.96712 142.26 6.20312C142.7 6.43099 143.042 6.7321 143.286 7.10645C143.538 7.48079 143.705 7.90397 143.786 8.37598C143.876 8.84798 143.92 9.31999 143.92 9.79199C143.92 10.1012 143.876 10.4023 143.786 10.6953C143.697 10.9801 143.599 11.2487 143.493 11.501C143.396 11.7451 143.302 11.9689 143.212 12.1724C143.123 12.3677 143.078 12.5304 143.078 12.6606V12.7217C143.469 12.6729 143.957 12.624 144.543 12.5752C145.137 12.5264 145.788 12.4613 146.496 12.3799C147.204 12.2985 147.941 12.1927 148.706 12.0625C149.479 11.9323 150.24 11.7655 150.988 11.562C151.737 11.3586 152.449 11.1104 153.125 10.8174C153.8 10.5244 154.394 10.1704 154.907 9.75537C155.419 9.34033 155.826 8.85612 156.127 8.30273C156.429 7.74935 156.579 7.11458 156.579 6.39844C156.579 5.8776 156.368 5.39746 155.944 4.95801C155.521 4.51042 154.956 4.10758 154.248 3.74951C153.54 3.39144 152.722 3.07812 151.794 2.80957C150.874 2.54102 149.918 2.31722 148.925 2.13818C147.941 1.95915 146.952 1.82487 145.959 1.73535C144.974 1.6377 144.059 1.58887 143.212 1.58887C142.26 1.58887 141.247 1.60921 140.173 1.6499C139.099 1.68245 138.033 1.75977 136.975 1.88184C135.925 2.00391 134.916 2.18701 133.947 2.43115C132.987 2.67529 132.137 3.00895 131.396 3.43213C130.664 3.84717 130.078 4.36393 129.638 4.98242C129.199 5.60091 128.979 6.34961 128.979 7.22852C128.979 7.46452 129.093 7.63949 129.321 7.75342C129.549 7.85921 129.833 7.93652 130.175 7.98535C130.517 8.03418 130.887 8.07487 131.286 8.10742C131.685 8.13184 132.055 8.18473 132.397 8.26611C132.739 8.33936 133.024 8.45736 133.251 8.62012C133.479 8.78288 133.593 9.02295 133.593 9.34033C133.593 9.47868 133.443 9.58447 133.142 9.65771C132.84 9.72282 132.458 9.75537 131.994 9.75537C131.66 9.75537 131.302 9.73503 130.92 9.69434C130.537 9.65365 130.155 9.59261 129.772 9.51123C129.39 9.42171 129.02 9.31185 128.662 9.18164C128.312 9.05143 128.002 8.89681 127.734 8.71777C127.465 8.5306 127.25 8.31901 127.087 8.08301C126.924 7.84701 126.843 7.58252 126.843 7.28955C126.843 6.54085 126.997 5.8776 127.307 5.2998C127.624 4.71387 128.051 4.1971 128.588 3.74951C129.134 3.29378 129.772 2.90723 130.505 2.58984C131.237 2.26432 132.019 1.9917 132.849 1.77197C133.687 1.54411 134.554 1.361 135.449 1.22266C136.352 1.08431 137.243 0.978516 138.122 0.905273C139.009 0.823893 139.86 0.770996 140.673 0.746582C141.495 0.722168 142.244 0.709961 142.919 0.709961C143.701 0.709961 144.531 0.730306 145.41 0.770996C146.297 0.803548 147.196 0.864583 148.107 0.954102C149.019 1.04362 149.922 1.16162 150.817 1.30811C151.721 1.45459 152.583 1.6377 153.405 1.85742C154.227 2.06901 154.988 2.32129 155.688 2.61426C156.396 2.89909 157.006 3.22868 157.519 3.60303C158.04 3.97738 158.447 4.40055 158.74 4.87256C159.033 5.34456 159.179 5.86947 159.179 6.44727C159.179 7.13086 159.025 7.75342 158.715 8.31494C158.406 8.86833 157.983 9.36882 157.446 9.81641C156.917 10.264 156.286 10.6628 155.554 11.0127C154.829 11.3545 154.048 11.6556 153.21 11.916C152.372 12.1764 151.493 12.4002 150.573 12.5874C149.662 12.7746 148.75 12.9333 147.839 13.0635C146.936 13.1937 146.053 13.2995 145.19 13.3809C144.327 13.4622 143.526 13.5273 142.785 13.5762C142.631 13.7633 142.439 14.0848 142.211 14.5405C141.992 14.9963 141.743 15.5374 141.467 16.1641C141.19 16.7826 140.893 17.4621 140.576 18.2026C140.258 18.9351 139.933 19.6715 139.599 20.4121C139.819 20.6807 140.083 20.876 140.393 20.998C140.71 21.112 141.056 21.1689 141.43 21.1689C141.861 21.1689 142.313 21.1242 142.785 21.0347C143.265 20.9451 143.745 20.8271 144.226 20.6807C144.714 20.526 145.194 20.3551 145.666 20.168C146.146 19.9727 146.606 19.7773 147.045 19.582C147.591 19.346 148.14 19.0938 148.693 18.8252C149.247 18.5485 149.804 18.2677 150.366 17.9829ZM140.026 12.6973C140.197 12.3311 140.389 11.9445 140.6 11.5376C140.82 11.1226 141.023 10.7075 141.21 10.2925C141.406 9.87744 141.569 9.47461 141.699 9.08398C141.829 8.69336 141.894 8.33122 141.894 7.99756C141.894 7.54183 141.78 7.17562 141.552 6.89893C141.333 6.6141 140.938 6.47168 140.368 6.47168C139.888 6.47168 139.428 6.55306 138.989 6.71582C138.557 6.87858 138.175 7.11458 137.841 7.42383C137.516 7.72493 137.255 8.09115 137.06 8.52246C136.873 8.95378 136.779 9.43799 136.779 9.9751C136.779 10.4146 136.861 10.8052 137.023 11.147C137.186 11.4806 137.41 11.7655 137.695 12.0015C137.98 12.2293 138.321 12.4043 138.72 12.5264C139.119 12.6403 139.554 12.6973 140.026 12.6973Z" fill="#9A5D41"/>
<path d="M152.905 21.3398C152.905 21.0632 152.917 20.762 152.941 20.4365C152.974 20.1029 153.011 19.757 153.051 19.3989C153.1 19.0327 153.157 18.6665 153.222 18.3003C153.287 17.9259 153.356 17.5597 153.43 17.2017L150.378 18.9961C150.297 19.0531 150.207 19.0815 150.109 19.0815C150.012 19.0815 149.93 19.049 149.865 18.9839C149.792 18.9188 149.755 18.8374 149.755 18.7397C149.755 18.6258 149.804 18.5078 149.902 18.3857C149.991 18.2555 150.15 18.1213 150.378 17.9829L153.552 15.9932C153.682 15.6188 153.869 15.1143 154.113 14.4795C154.357 13.8447 154.659 13.1408 155.017 12.3677C155.375 11.5946 155.79 10.7767 156.262 9.91406C156.734 9.05143 157.267 8.19694 157.861 7.35059C158.455 6.50423 159.106 5.69857 159.814 4.93359C160.522 4.16048 161.287 3.48096 162.109 2.89502C162.939 2.30908 163.826 1.84521 164.77 1.50342C165.722 1.15348 166.735 0.978516 167.81 0.978516C168.721 0.978516 169.514 1.04362 170.19 1.17383C170.865 1.2959 171.423 1.47087 171.862 1.69873C172.302 1.9266 172.627 2.19515 172.839 2.50439C173.059 2.8055 173.168 3.13509 173.168 3.49316C173.168 4.05469 172.924 4.64469 172.436 5.26318C171.956 5.87354 171.236 6.47168 170.275 7.05762L156.384 15.6147L155.651 20.3145C156.066 20.0622 156.481 19.8099 156.896 19.5576C157.312 19.2972 157.702 19.049 158.068 18.813C158.443 18.577 158.78 18.3613 159.082 18.166C159.391 17.9626 159.639 17.7917 159.826 17.6533C159.916 17.5719 160.034 17.4784 160.18 17.3726C160.335 17.2668 160.506 17.1691 160.693 17.0796C160.888 16.9901 161.096 16.9128 161.315 16.8477C161.535 16.7826 161.763 16.75 161.999 16.75C162.17 16.75 162.341 16.7703 162.512 16.811C162.683 16.8436 162.833 16.925 162.963 17.0552C163.102 17.1854 163.212 17.3726 163.293 17.6167C163.382 17.8608 163.427 18.1904 163.427 18.6055V21.7549C163.509 21.7061 163.659 21.6165 163.879 21.4863C164.107 21.348 164.379 21.1852 164.697 20.998C165.014 20.8109 165.36 20.6074 165.734 20.3877C166.117 20.168 166.499 19.9482 166.882 19.7285L169.836 17.9829C170.007 17.8853 170.153 17.8364 170.275 17.8364C170.463 17.8364 170.556 17.93 170.556 18.1172C170.556 18.2474 170.499 18.3898 170.385 18.5444C170.279 18.6909 170.096 18.8415 169.836 18.9961C168.941 19.5251 168.082 20.0296 167.26 20.5098C166.446 20.9899 165.706 21.4172 165.039 21.7915C164.379 22.1659 163.818 22.471 163.354 22.707C162.89 22.9349 162.565 23.0651 162.377 23.0977C162.288 23.1139 162.194 23.1261 162.097 23.1343C161.999 23.1424 161.901 23.1465 161.804 23.1465C161.511 23.1465 161.271 23.1058 161.083 23.0244C160.904 22.9512 160.762 22.8494 160.656 22.7192C160.559 22.5809 160.489 22.4263 160.449 22.2554C160.416 22.0845 160.4 21.9014 160.4 21.7061C160.4 21.5189 160.432 21.3236 160.498 21.1201C160.571 20.9085 160.624 20.6766 160.656 20.4243L160.998 17.751C159.769 18.6136 158.646 19.3786 157.629 20.0459C157.271 20.3307 156.917 20.6034 156.567 20.8638C156.217 21.1242 155.896 21.3561 155.603 21.5596C155.318 21.763 155.069 21.9258 154.858 22.0479C154.646 22.1618 154.504 22.2188 154.431 22.2188C154.276 22.2188 154.109 22.2106 153.93 22.1943C153.751 22.1781 153.584 22.1414 153.43 22.0845C153.283 22.0194 153.157 21.9299 153.051 21.8159C152.954 21.6938 152.905 21.5352 152.905 21.3398ZM156.604 14.0522C157.629 13.3605 158.695 12.6484 159.802 11.916C160.909 11.1755 162.028 10.443 163.159 9.71875C164.298 8.99447 165.429 8.28646 166.552 7.59473C167.683 6.89486 168.782 6.23975 169.848 5.62939C170.467 5.16553 170.943 4.73421 171.276 4.33545C171.61 3.93669 171.777 3.57861 171.777 3.26123C171.777 2.85433 171.468 2.53288 170.849 2.29688C170.231 2.05273 169.25 1.93066 167.907 1.93066C167.281 1.93066 166.654 2.05273 166.027 2.29688C165.401 2.53288 164.782 2.8584 164.172 3.27344C163.57 3.68848 162.984 4.17676 162.414 4.73828C161.844 5.29167 161.303 5.88574 160.791 6.52051C160.278 7.15527 159.798 7.81445 159.35 8.49805C158.903 9.1735 158.496 9.84082 158.129 10.5C157.771 11.1592 157.462 11.7939 157.202 12.4043C156.941 13.0146 156.742 13.564 156.604 14.0522Z" fill="#9A5D41"/>
<path d="M169.836 18.9961C169.755 19.0531 169.661 19.0815 169.555 19.0815C169.449 19.0815 169.364 19.0531 169.299 18.9961C169.234 18.931 169.201 18.8496 169.201 18.752C169.201 18.6462 169.25 18.5282 169.348 18.3979C169.437 18.2596 169.6 18.1213 169.836 17.9829L172.924 16.1641C173.152 15.5212 173.445 14.9678 173.803 14.5039C174.169 14.0319 174.568 13.6453 175 13.3442C175.439 13.035 175.895 12.8071 176.367 12.6606C176.847 12.506 177.311 12.4287 177.758 12.4287C178.214 12.4287 178.588 12.5508 178.881 12.7949C179.182 13.0309 179.333 13.4012 179.333 13.9058C179.333 14.215 179.219 14.5405 178.991 14.8823C178.771 15.216 178.466 15.5496 178.076 15.8833C177.693 16.2088 177.242 16.514 176.721 16.7988C176.2 17.0837 175.646 17.3237 175.061 17.519C175.061 17.9097 175.052 18.2799 175.036 18.6299C175.028 18.9798 175.024 19.3094 175.024 19.6187C175.024 19.8791 175.032 20.1191 175.048 20.3389C175.065 20.5505 175.097 20.7336 175.146 20.8882C175.203 21.0347 175.276 21.1527 175.366 21.2422C175.463 21.3236 175.585 21.3643 175.732 21.3643C175.96 21.3643 176.232 21.2747 176.55 21.0957C176.875 20.9085 177.282 20.6725 177.771 20.3877C178.21 20.1273 178.771 19.8018 179.455 19.4111C180.139 19.0205 180.973 18.5444 181.958 17.9829C181.99 17.9585 182.035 17.9463 182.092 17.9463C182.181 17.9463 182.259 17.987 182.324 18.0684C182.397 18.1416 182.434 18.2352 182.434 18.3491C182.434 18.4468 182.397 18.5526 182.324 18.6665C182.259 18.7804 182.137 18.8903 181.958 18.9961C181.152 19.4762 180.371 19.9645 179.614 20.4609C178.857 20.9492 178.141 21.3968 177.465 21.8037C176.798 22.2025 176.18 22.5321 175.61 22.7925C175.04 23.0448 174.544 23.1709 174.121 23.1709C173.836 23.1709 173.583 23.1099 173.364 22.9878C173.152 22.8657 172.969 22.6704 172.814 22.4019C172.668 22.1333 172.554 21.7834 172.473 21.3521C172.399 20.9126 172.363 20.3796 172.363 19.7529C172.363 19.6553 172.367 19.5007 172.375 19.2891C172.391 19.0693 172.412 18.8374 172.436 18.5933C172.469 18.341 172.505 18.0968 172.546 17.8608C172.587 17.6248 172.635 17.4417 172.692 17.3115C172.635 17.3441 172.55 17.3929 172.436 17.458C172.33 17.5231 172.204 17.6004 172.058 17.6899C171.911 17.7713 171.757 17.8608 171.594 17.9585C171.431 18.0562 171.268 18.1538 171.105 18.2515L169.836 18.9961ZM178.015 14.0034C178.031 13.9546 178.039 13.9017 178.039 13.8447C178.039 13.6413 178.002 13.4907 177.929 13.3931C177.864 13.2954 177.75 13.2466 177.587 13.2466C177.4 13.2466 177.185 13.3198 176.94 13.4663C176.696 13.6047 176.456 13.8122 176.22 14.0889C175.992 14.3656 175.785 14.7114 175.598 15.1265C175.419 15.5415 175.297 16.0176 175.231 16.5547C175.565 16.3838 175.891 16.1885 176.208 15.9688C176.525 15.7409 176.81 15.513 177.062 15.2852C177.323 15.0492 177.535 14.8213 177.697 14.6016C177.868 14.3737 177.974 14.1743 178.015 14.0034Z" fill="#9A5D41"/>
<path d="M195.19 5.97119C194.726 5.97119 194.287 6.06885 193.872 6.26416C193.457 6.45947 193.062 6.72803 192.688 7.06982C192.321 7.41162 191.975 7.81852 191.65 8.29053C191.324 8.76253 191.019 9.27116 190.734 9.81641C190.45 10.3617 190.185 10.9354 189.941 11.5376C189.705 12.1398 189.489 12.7461 189.294 13.3564C190.393 12.5671 191.357 11.8184 192.187 11.1104C193.017 10.4023 193.713 9.75537 194.274 9.16943C194.836 8.5835 195.255 8.06673 195.532 7.61914C195.817 7.16341 195.959 6.79313 195.959 6.5083C195.959 6.34554 195.906 6.21533 195.8 6.11768C195.703 6.02002 195.499 5.97119 195.19 5.97119ZM196.423 13.1733C196.618 13.271 196.716 13.389 196.716 13.5273C196.716 13.7389 196.634 13.9342 196.472 14.1133C196.317 14.2923 196.11 14.4551 195.849 14.6016C195.597 14.7399 195.308 14.862 194.982 14.9678C194.665 15.0736 194.344 15.1631 194.018 15.2363C193.701 15.3096 193.396 15.3665 193.103 15.4072C192.777 15.4479 192.533 15.4642 192.37 15.4561C191.735 15.4398 191.109 15.4276 190.49 15.4194L188.696 15.395C188.452 16.3065 188.26 17.0877 188.122 17.7388C187.984 18.3817 187.878 18.9432 187.805 19.4233C187.74 19.8953 187.699 20.3063 187.683 20.6562C187.666 21.0062 187.658 21.3439 187.658 21.6694C187.658 21.8485 187.683 21.9909 187.731 22.0967C187.78 22.2025 187.862 22.2554 187.976 22.2554C188.374 22.2554 188.814 22.1211 189.294 21.8525C189.782 21.584 190.327 21.2422 190.93 20.8271L192.956 19.4478C194.063 18.6909 194.893 18.2026 195.446 17.9829C195.487 17.9666 195.568 17.93 195.69 17.873C195.756 17.8486 195.817 17.8364 195.874 17.8364C196.053 17.8364 196.142 17.93 196.142 18.1172C196.142 18.2393 196.089 18.3817 195.983 18.5444C195.869 18.6991 195.69 18.8496 195.446 18.9961C194.201 19.7448 193.282 20.3307 192.688 20.7539L190.6 22.2676C189.982 22.707 189.416 23.057 188.903 23.3174C188.382 23.5778 187.858 23.708 187.329 23.708C186.873 23.708 186.519 23.5859 186.267 23.3418C186.022 23.0977 185.839 22.8006 185.717 22.4507C185.603 22.0926 185.534 21.7101 185.51 21.3032C185.485 20.8963 185.473 20.5342 185.473 20.2168C185.473 19.5983 185.506 18.9839 185.571 18.3735C185.644 17.7632 185.738 17.1772 185.852 16.6157L183.935 17.8242L181.97 18.9961C181.929 19.0205 181.884 19.0327 181.835 19.0327C181.746 19.0327 181.66 18.9961 181.579 18.9229C181.498 18.8415 181.457 18.7438 181.457 18.6299C181.457 18.5404 181.494 18.4386 181.567 18.3247C181.64 18.2108 181.774 18.0968 181.97 17.9829L184.13 16.75C184.814 16.3431 185.473 15.9321 186.108 15.5171L186.132 15.4072L184.57 15.4438C184.488 15.4438 184.411 15.4479 184.338 15.4561C184.265 15.4642 184.195 15.4683 184.13 15.4683C183.992 15.4683 183.878 15.4276 183.789 15.3462C183.707 15.2567 183.658 15.159 183.642 15.0532C183.642 14.9637 183.711 14.8783 183.85 14.7969C183.988 14.7155 184.183 14.6423 184.436 14.5771C184.688 14.5039 184.989 14.4388 185.339 14.3818C185.689 14.3167 186.075 14.2598 186.499 14.2109C186.987 12.681 187.516 11.3545 188.085 10.2314C188.655 9.1084 189.294 8.18066 190.002 7.44824C190.718 6.71582 191.516 6.17057 192.395 5.8125C193.273 5.45443 194.266 5.27539 195.373 5.27539C195.886 5.27539 196.256 5.35677 196.484 5.51953C196.72 5.67415 196.838 5.89388 196.838 6.17871C196.838 6.56934 196.663 7.04134 196.313 7.59473C195.971 8.14811 195.487 8.76253 194.86 9.43799C194.242 10.1053 193.497 10.8174 192.626 11.5742C191.764 12.3229 190.808 13.092 189.758 13.8813C190.279 13.8325 190.808 13.7878 191.345 13.7471L192.932 13.6128C193.452 13.5721 193.961 13.5273 194.458 13.4785C194.962 13.4297 195.442 13.3768 195.898 13.3198C195.987 13.2954 196.053 13.2629 196.093 13.2222C196.134 13.1733 196.203 13.1489 196.301 13.1489C196.333 13.1489 196.374 13.1571 196.423 13.1733Z" fill="#9A5D41"/>
<path d="M203.649 15.2241C203.649 15.5659 203.674 15.8182 203.723 15.981C203.771 16.1437 203.824 16.2902 203.881 16.4204C203.946 16.5425 204.003 16.6808 204.052 16.8354C204.109 16.9819 204.138 17.2139 204.138 17.5312C204.138 17.751 204.113 17.9992 204.064 18.2759C204.024 18.5444 203.942 18.8252 203.82 19.1182C203.698 19.403 203.527 19.6878 203.308 19.9727C203.088 20.2493 202.807 20.4976 202.465 20.7173L207.25 17.9829C207.307 17.9504 207.364 17.9341 207.421 17.9341C207.511 17.9341 207.588 17.9707 207.653 18.0439C207.727 18.109 207.763 18.1986 207.763 18.3125C207.763 18.402 207.722 18.5119 207.641 18.6421C207.568 18.7723 207.438 18.8903 207.25 18.9961C206.25 19.5658 205.387 20.0622 204.663 20.4854C203.946 20.9004 203.332 21.2585 202.819 21.5596C202.315 21.8607 201.9 22.113 201.574 22.3164C201.249 22.5117 200.976 22.6745 200.756 22.8047C200.366 23.0407 199.995 23.1994 199.646 23.2808C199.296 23.3621 198.95 23.4028 198.608 23.4028C198.347 23.4028 198.156 23.3581 198.034 23.2686C197.92 23.179 197.863 23.0814 197.863 22.9756C197.871 22.8617 197.937 22.7599 198.059 22.6704C198.181 22.5728 198.356 22.5239 198.583 22.5239C198.982 22.5239 199.369 22.3896 199.743 22.1211C200.118 21.8444 200.447 21.4741 200.732 21.0103C201.025 20.5382 201.257 19.9889 201.428 19.3623C201.607 18.7357 201.696 18.0724 201.696 17.3726C201.696 17.2668 201.717 17.0633 201.757 16.7622C201.806 16.4611 201.879 16.1356 201.977 15.7856C202.075 15.4357 202.201 15.0939 202.355 14.7603C202.518 14.4266 202.709 14.1743 202.929 14.0034L195.446 18.9961C195.365 19.0531 195.279 19.0815 195.19 19.0815C195.1 19.0815 195.027 19.049 194.97 18.9839C194.913 18.9188 194.885 18.8374 194.885 18.7397C194.885 18.6258 194.93 18.4997 195.019 18.3613C195.1 18.223 195.243 18.0968 195.446 17.9829C196.757 17.0959 197.855 16.3594 198.742 15.7734C199.637 15.1794 200.366 14.6992 200.927 14.333L202.636 13.1733C202.889 13.0675 203.153 12.9862 203.43 12.9292C203.706 12.8641 203.963 12.8315 204.199 12.8315C204.459 12.8315 204.671 12.8763 204.833 12.9658C205.004 13.0472 205.09 13.1815 205.09 13.3687C205.09 13.4338 205.013 13.5396 204.858 13.686C204.711 13.8325 204.549 13.9993 204.37 14.1865C204.191 14.3656 204.024 14.5487 203.869 14.7358C203.723 14.923 203.649 15.0858 203.649 15.2241Z" fill="#9A5D41"/>
<path d="M207.263 18.9961C207.206 19.0286 207.153 19.0449 207.104 19.0449C207.023 19.0449 206.962 19.0124 206.921 18.9473C206.88 18.874 206.86 18.7845 206.86 18.6787C206.86 18.5648 206.888 18.4427 206.945 18.3125C207.002 18.1823 207.108 18.0724 207.263 17.9829L211.779 15.3218C212.341 14.9963 212.939 14.7155 213.574 14.4795C214.208 14.2435 214.851 14.0522 215.502 13.9058C216.162 13.7511 216.813 13.6413 217.456 13.5762C218.098 13.5029 218.705 13.4663 219.274 13.4663C219.6 13.4663 219.905 13.4907 220.19 13.5396C220.475 13.5802 220.719 13.6453 220.922 13.7349C221.134 13.8162 221.297 13.918 221.411 14.04C221.533 14.1621 221.594 14.3005 221.594 14.4551C221.594 14.569 221.553 14.6504 221.472 14.6992C221.39 14.748 221.293 14.7847 221.179 14.8091C221.073 14.8254 220.959 14.8376 220.837 14.8457C220.723 14.8538 220.633 14.8742 220.568 14.9067C220.52 15.0614 220.442 15.3014 220.336 15.627C220.231 15.9443 220.125 16.2739 220.019 16.6157C219.913 16.9494 219.816 17.2505 219.726 17.519C219.645 17.7795 219.6 17.93 219.592 17.9707C219.486 18.3125 219.34 18.7479 219.152 19.2769C218.973 19.7977 218.774 20.4976 218.554 21.3765C218.562 21.3765 218.652 21.3317 218.823 21.2422C219.002 21.1445 219.23 21.0184 219.506 20.8638C219.791 20.7091 220.113 20.5301 220.471 20.3267C220.829 20.1232 221.199 19.9157 221.582 19.7041L224.499 17.9829C224.613 17.9178 224.711 17.8853 224.792 17.8853C224.882 17.8853 224.951 17.9178 225 17.9829C225.048 18.0399 225.073 18.1131 225.073 18.2026C225.073 18.3166 225.028 18.4508 224.938 18.6055C224.849 18.752 224.702 18.8822 224.499 18.9961L218.005 22.8047C217.842 22.9023 217.692 22.9715 217.553 23.0122C217.415 23.0529 217.289 23.0732 217.175 23.0732C217.012 23.0732 216.874 23.0366 216.76 22.9634C216.646 22.8901 216.552 22.7884 216.479 22.6582C216.406 22.528 216.349 22.3815 216.308 22.2188C216.276 22.0479 216.259 21.8688 216.259 21.6816C216.259 21.4782 216.28 21.2747 216.32 21.0713C216.361 20.8678 216.414 20.6725 216.479 20.4854C216.243 20.9492 215.966 21.3521 215.649 21.6938C215.34 22.0356 215.006 22.3245 214.648 22.5605C214.298 22.7884 213.936 22.9593 213.562 23.0732C213.187 23.1872 212.821 23.2441 212.463 23.2441C212.105 23.2441 211.767 23.1872 211.45 23.0732C211.132 22.9593 210.852 22.7925 210.607 22.5728C210.371 22.3449 210.184 22.0641 210.046 21.7305C209.908 21.3968 209.838 21.0103 209.838 20.5708C209.838 20.3104 209.863 20.0215 209.912 19.7041C209.969 19.3867 210.042 19.0653 210.131 18.7397C210.221 18.4142 210.323 18.0968 210.437 17.7876C210.55 17.4702 210.668 17.1813 210.791 16.9209L207.263 18.9961ZM218.359 14.5039C217.708 14.5039 217.085 14.6138 216.491 14.8335C215.897 15.0532 215.344 15.3421 214.831 15.7002C214.326 16.0583 213.867 16.4692 213.452 16.9331C213.045 17.3888 212.695 17.8608 212.402 18.3491C212.117 18.8293 211.893 19.3053 211.73 19.7773C211.576 20.2493 211.499 20.6725 211.499 21.0469C211.499 21.4619 211.588 21.7996 211.767 22.0601C211.954 22.3123 212.255 22.4385 212.67 22.4385C212.915 22.4385 213.179 22.3652 213.464 22.2188C213.757 22.0641 214.05 21.8647 214.343 21.6206C214.644 21.3683 214.937 21.0876 215.222 20.7783C215.515 20.4609 215.783 20.1436 216.027 19.8262C216.271 19.5007 216.483 19.1873 216.662 18.8862C216.849 18.577 216.984 18.3084 217.065 18.0806L218.359 14.5039Z" fill="#9A5D41"/>
<path d="M232.226 21.7061C231.933 21.7956 231.705 21.8403 231.542 21.8403C231.306 22.1414 231.054 22.4141 230.786 22.6582C230.525 22.9023 230.236 23.1099 229.919 23.2808C229.602 23.4517 229.252 23.5819 228.869 23.6714C228.495 23.7609 228.072 23.8057 227.6 23.8057C227.421 23.8057 227.266 23.6999 227.136 23.4883C227.014 23.2848 226.904 23.0203 226.806 22.6948C226.717 22.3612 226.639 21.9909 226.574 21.584C226.517 21.1771 226.472 20.7702 226.44 20.3633C226.407 19.9564 226.383 19.5739 226.367 19.2158C226.359 18.8577 226.354 18.5648 226.354 18.3369C226.354 18.2148 226.354 18.1172 226.354 18.0439C226.354 17.9626 226.359 17.9137 226.367 17.8975L224.499 18.9961C224.401 19.0449 224.316 19.0693 224.243 19.0693C224.039 19.0693 223.938 18.9554 223.938 18.7275C223.938 18.6136 223.982 18.4915 224.072 18.3613C224.153 18.2311 224.296 18.105 224.499 17.9829L226.391 16.8721C226.424 16.457 226.477 16.0176 226.55 15.5537C226.631 15.0817 226.741 14.6463 226.879 14.2476C227.026 13.8488 227.209 13.5192 227.429 13.2588C227.657 12.9902 227.937 12.856 228.271 12.856C228.458 12.856 228.613 12.8722 228.735 12.9048C228.857 12.9373 228.951 12.9984 229.016 13.0879C229.089 13.1693 229.138 13.2913 229.162 13.4541C229.187 13.6169 229.199 13.8244 229.199 14.0767C229.199 14.4266 229.187 14.8213 229.162 15.2607C229.138 15.7002 229.105 16.1641 229.064 16.6523C229.032 17.1325 228.991 17.6248 228.942 18.1294C228.902 18.6258 228.861 19.106 228.82 19.5698C228.788 20.0256 228.759 20.4528 228.735 20.8516C228.71 21.2503 228.698 21.5921 228.698 21.877C228.698 22.113 228.706 22.3001 228.723 22.4385C228.739 22.5768 228.78 22.646 228.845 22.646C228.959 22.646 229.13 22.5117 229.357 22.2432C229.593 21.9746 229.895 21.5799 230.261 21.0591C230.179 20.9126 230.118 20.762 230.078 20.6074C230.045 20.4447 230.029 20.2941 230.029 20.1558C230.029 19.8709 230.122 19.6593 230.31 19.521C230.497 19.3826 230.721 19.3135 230.981 19.3135C231.144 19.3135 231.274 19.3298 231.372 19.3623C231.86 18.5973 232.401 17.7347 232.995 16.7744C233.589 15.8141 234.257 14.7236 234.997 13.5029L236.621 13.2954L234.094 17.519C233.768 18.0643 233.471 18.5892 233.203 19.0938C232.934 19.5902 232.67 20.0622 232.409 20.5098C232.434 20.6237 232.446 20.7376 232.446 20.8516C232.446 20.8516 232.507 20.8109 232.629 20.7295C232.759 20.6562 232.93 20.5545 233.142 20.4243C233.353 20.286 233.593 20.1313 233.862 19.9604C234.13 19.7896 234.403 19.6146 234.68 19.4355L236.926 17.9829C237.007 17.9341 237.084 17.9097 237.158 17.9097C237.247 17.9097 237.32 17.9422 237.377 18.0073C237.443 18.0724 237.475 18.1538 237.475 18.2515C237.475 18.3654 237.43 18.4875 237.341 18.6177C237.259 18.7397 237.121 18.8659 236.926 18.9961C236.779 19.0938 236.584 19.2199 236.34 19.3745C236.104 19.5291 235.839 19.696 235.546 19.875C235.262 20.054 234.96 20.2371 234.643 20.4243C234.326 20.6115 234.016 20.7905 233.715 20.9614C233.422 21.1323 233.146 21.2829 232.885 21.4131C232.625 21.5433 232.405 21.641 232.226 21.7061Z" fill="#9A5D41"/>
<path d="M236.926 18.9961C236.869 19.0286 236.816 19.0449 236.767 19.0449C236.686 19.0449 236.625 19.0124 236.584 18.9473C236.543 18.874 236.523 18.7845 236.523 18.6787C236.523 18.5648 236.551 18.4427 236.608 18.3125C236.665 18.1823 236.771 18.0724 236.926 17.9829L241.442 15.3218C242.004 14.9963 242.602 14.7155 243.237 14.4795C243.872 14.2435 244.514 14.0522 245.166 13.9058C245.825 13.7511 246.476 13.6413 247.119 13.5762C247.762 13.5029 248.368 13.4663 248.938 13.4663C249.263 13.4663 249.568 13.4907 249.853 13.5396C250.138 13.5802 250.382 13.6453 250.585 13.7349C250.797 13.8162 250.96 13.918 251.074 14.04C251.196 14.1621 251.257 14.3005 251.257 14.4551C251.257 14.569 251.216 14.6504 251.135 14.6992C251.053 14.748 250.956 14.7847 250.842 14.8091C250.736 14.8254 250.622 14.8376 250.5 14.8457C250.386 14.8538 250.297 14.8742 250.231 14.9067C250.183 15.0614 250.105 15.3014 250 15.627C249.894 15.9443 249.788 16.2739 249.682 16.6157C249.576 16.9494 249.479 17.2505 249.389 17.519C249.308 17.7795 249.263 17.93 249.255 17.9707C249.149 18.3125 249.003 18.7479 248.815 19.2769C248.636 19.7977 248.437 20.4976 248.217 21.3765C248.225 21.3765 248.315 21.3317 248.486 21.2422C248.665 21.1445 248.893 21.0184 249.169 20.8638C249.454 20.7091 249.776 20.5301 250.134 20.3267C250.492 20.1232 250.862 19.9157 251.245 19.7041L254.162 17.9829C254.276 17.9178 254.374 17.8853 254.455 17.8853C254.545 17.8853 254.614 17.9178 254.663 17.9829C254.711 18.0399 254.736 18.1131 254.736 18.2026C254.736 18.3166 254.691 18.4508 254.602 18.6055C254.512 18.752 254.366 18.8822 254.162 18.9961L247.668 22.8047C247.505 22.9023 247.355 22.9715 247.216 23.0122C247.078 23.0529 246.952 23.0732 246.838 23.0732C246.675 23.0732 246.537 23.0366 246.423 22.9634C246.309 22.8901 246.215 22.7884 246.142 22.6582C246.069 22.528 246.012 22.3815 245.971 22.2188C245.939 22.0479 245.922 21.8688 245.922 21.6816C245.922 21.4782 245.943 21.2747 245.983 21.0713C246.024 20.8678 246.077 20.6725 246.142 20.4854C245.906 20.9492 245.629 21.3521 245.312 21.6938C245.003 22.0356 244.669 22.3245 244.311 22.5605C243.961 22.7884 243.599 22.9593 243.225 23.0732C242.85 23.1872 242.484 23.2441 242.126 23.2441C241.768 23.2441 241.43 23.1872 241.113 23.0732C240.795 22.9593 240.515 22.7925 240.271 22.5728C240.035 22.3449 239.847 22.0641 239.709 21.7305C239.571 21.3968 239.501 21.0103 239.501 20.5708C239.501 20.3104 239.526 20.0215 239.575 19.7041C239.632 19.3867 239.705 19.0653 239.794 18.7397C239.884 18.4142 239.986 18.0968 240.1 17.7876C240.214 17.4702 240.332 17.1813 240.454 16.9209L236.926 18.9961ZM248.022 14.5039C247.371 14.5039 246.748 14.6138 246.154 14.8335C245.56 15.0532 245.007 15.3421 244.494 15.7002C243.99 16.0583 243.53 16.4692 243.115 16.9331C242.708 17.3888 242.358 17.8608 242.065 18.3491C241.78 18.8293 241.556 19.3053 241.394 19.7773C241.239 20.2493 241.162 20.6725 241.162 21.0469C241.162 21.4619 241.251 21.7996 241.43 22.0601C241.617 22.3123 241.918 22.4385 242.333 22.4385C242.578 22.4385 242.842 22.3652 243.127 22.2188C243.42 22.0641 243.713 21.8647 244.006 21.6206C244.307 21.3683 244.6 21.0876 244.885 20.7783C245.178 20.4609 245.446 20.1436 245.69 19.8262C245.935 19.5007 246.146 19.1873 246.325 18.8862C246.512 18.577 246.647 18.3084 246.728 18.0806L248.022 14.5039Z" fill="#9A5D41"/>
<path d="M268.92 15.0898C268.611 15.0898 268.225 15.1794 267.761 15.3584C267.297 15.5293 266.788 15.7694 266.235 16.0786C265.681 16.3797 265.104 16.7378 264.501 17.1528C263.907 17.5679 263.321 18.0195 262.744 18.5078C262.174 18.9961 261.629 19.5129 261.108 20.0581C260.595 20.5952 260.148 21.1364 259.765 21.6816C259.724 21.7223 259.704 21.8159 259.704 21.9624C259.704 22.1007 259.68 22.2472 259.631 22.4019C259.59 22.5565 259.505 22.6948 259.375 22.8169C259.244 22.939 259.029 23 258.728 23C258.516 23 258.349 22.9756 258.227 22.9268C258.113 22.8779 258.024 22.8128 257.958 22.7314C257.902 22.6419 257.865 22.5402 257.849 22.4263C257.832 22.3042 257.824 22.1699 257.824 22.0234C257.824 21.877 257.865 21.6613 257.946 21.3765C258.028 21.0916 258.133 20.762 258.264 20.3877C258.394 20.0133 258.54 19.6105 258.703 19.1792C258.866 18.7479 259.029 18.3166 259.191 17.8853C259.362 17.4539 259.521 17.0348 259.667 16.6279C259.822 16.221 259.952 15.8548 260.058 15.5293L254.162 18.9961C254.121 19.0042 254.089 19.0124 254.064 19.0205C254.032 19.0205 254.007 19.0205 253.991 19.0205C253.877 19.0205 253.796 18.992 253.747 18.9351C253.69 18.87 253.662 18.7926 253.662 18.7031C253.662 18.5892 253.706 18.4671 253.796 18.3369C253.877 18.1986 253.999 18.0806 254.162 17.9829C255.383 17.2586 256.388 16.6646 257.177 16.2007C257.975 15.7287 258.614 15.3503 259.094 15.0654C259.574 14.7806 259.932 14.569 260.168 14.4307C260.412 14.2923 260.595 14.1906 260.717 14.1255C260.831 14.0604 260.933 14.0156 261.022 13.9912C261.12 13.9668 261.226 13.9546 261.34 13.9546C261.576 13.9546 261.767 14.0238 261.914 14.1621C262.068 14.3005 262.146 14.4551 262.146 14.626C262.146 14.7969 262.093 15.0329 261.987 15.334C261.881 15.627 261.751 15.9484 261.596 16.2983C261.442 16.6483 261.283 17.0063 261.12 17.3726C260.957 17.7306 260.819 18.0643 260.705 18.3735C260.656 18.4956 260.616 18.5973 260.583 18.6787C260.559 18.752 260.526 18.8374 260.485 18.9351C260.453 19.0327 260.404 19.1589 260.339 19.3135C260.274 19.46 260.18 19.6675 260.058 19.936C260.4 19.4966 260.799 19.0368 261.254 18.5566C261.718 18.0765 262.219 17.6086 262.756 17.1528C263.301 16.689 263.879 16.2495 264.489 15.8345C265.108 15.4194 265.743 15.0573 266.394 14.748C267.053 14.4307 267.724 14.1825 268.408 14.0034C269.091 13.8162 269.771 13.7227 270.446 13.7227C270.861 13.7227 271.146 13.8122 271.301 13.9912C271.464 14.1621 271.545 14.3981 271.545 14.6992C271.545 14.9434 271.5 15.2404 271.411 15.5903C271.321 15.9403 271.199 16.3228 271.044 16.7378C270.89 17.1447 270.715 17.5841 270.52 18.0562C270.324 18.52 270.117 18.992 269.897 19.4722C269.685 19.9442 269.47 20.4202 269.25 20.9004C269.038 21.3805 268.839 21.8403 268.652 22.2798C269.116 22.0926 269.6 21.8485 270.104 21.5474C270.609 21.2463 271.146 20.9085 271.716 20.5342C272.294 20.1598 272.9 19.757 273.535 19.3257C274.178 18.8862 274.865 18.4386 275.598 17.9829C275.655 17.9504 275.732 17.9341 275.83 17.9341C276.025 17.9341 276.123 18.0439 276.123 18.2637C276.123 18.3776 276.078 18.5037 275.988 18.6421C275.899 18.7723 275.769 18.8903 275.598 18.9961C274.629 19.5983 273.754 20.172 272.973 20.7173C272.192 21.2625 271.476 21.7467 270.825 22.1699C270.182 22.5931 269.592 22.9268 269.055 23.1709C268.526 23.4232 268.033 23.5493 267.578 23.5493C267.301 23.5493 267.065 23.5127 266.87 23.4395C266.674 23.3743 266.512 23.2848 266.381 23.1709C266.259 23.057 266.166 22.9227 266.101 22.7681C266.044 22.6053 266.015 22.4385 266.015 22.2676C266.015 22.0804 266.052 21.8973 266.125 21.7183C266.206 21.5311 266.316 21.3317 266.455 21.1201C266.707 20.5667 266.988 19.9889 267.297 19.3867C267.606 18.7764 267.891 18.1986 268.151 17.6533C268.412 17.1081 268.632 16.6239 268.811 16.2007C268.99 15.7775 269.079 15.4723 269.079 15.2852C269.079 15.1549 269.026 15.0898 268.92 15.0898Z" fill="#9A5D41"/>
<path d="M278.125 21.3398C278.125 21.0632 278.137 20.762 278.161 20.4365C278.194 20.1029 278.23 19.757 278.271 19.3989C278.32 19.0327 278.377 18.6665 278.442 18.3003C278.507 17.9259 278.576 17.5597 278.649 17.2017L275.598 18.9961C275.516 19.0531 275.427 19.0815 275.329 19.0815C275.231 19.0815 275.15 19.049 275.085 18.9839C275.012 18.9188 274.975 18.8374 274.975 18.7397C274.975 18.6258 275.024 18.5078 275.122 18.3857C275.211 18.2555 275.37 18.1213 275.598 17.9829L278.771 15.9932C278.902 15.6188 279.089 15.1143 279.333 14.4795C279.577 13.8447 279.878 13.1408 280.236 12.3677C280.594 11.5946 281.009 10.7767 281.481 9.91406C281.953 9.05143 282.486 8.19694 283.081 7.35059C283.675 6.50423 284.326 5.69857 285.034 4.93359C285.742 4.16048 286.507 3.48096 287.329 2.89502C288.159 2.30908 289.046 1.84521 289.99 1.50342C290.942 1.15348 291.955 0.978516 293.029 0.978516C293.941 0.978516 294.734 1.04362 295.41 1.17383C296.085 1.2959 296.643 1.47087 297.082 1.69873C297.521 1.9266 297.847 2.19515 298.059 2.50439C298.278 2.8055 298.388 3.13509 298.388 3.49316C298.388 4.05469 298.144 4.64469 297.656 5.26318C297.176 5.87354 296.455 6.47168 295.495 7.05762L281.604 15.6147L280.871 20.3145C281.286 20.0622 281.701 19.8099 282.116 19.5576C282.531 19.2972 282.922 19.049 283.288 18.813C283.662 18.577 284 18.3613 284.301 18.166C284.611 17.9626 284.859 17.7917 285.046 17.6533C285.135 17.5719 285.253 17.4784 285.4 17.3726C285.555 17.2668 285.725 17.1691 285.913 17.0796C286.108 16.9901 286.315 16.9128 286.535 16.8477C286.755 16.7826 286.983 16.75 287.219 16.75C287.39 16.75 287.561 16.7703 287.731 16.811C287.902 16.8436 288.053 16.925 288.183 17.0552C288.321 17.1854 288.431 17.3726 288.513 17.6167C288.602 17.8608 288.647 18.1904 288.647 18.6055V21.7549C288.728 21.7061 288.879 21.6165 289.099 21.4863C289.326 21.348 289.599 21.1852 289.917 20.998C290.234 20.8109 290.58 20.6074 290.954 20.3877C291.337 20.168 291.719 19.9482 292.102 19.7285L295.056 17.9829C295.227 17.8853 295.373 17.8364 295.495 17.8364C295.682 17.8364 295.776 17.93 295.776 18.1172C295.776 18.2474 295.719 18.3898 295.605 18.5444C295.499 18.6909 295.316 18.8415 295.056 18.9961C294.16 19.5251 293.302 20.0296 292.48 20.5098C291.666 20.9899 290.926 21.4172 290.258 21.7915C289.599 22.1659 289.038 22.471 288.574 22.707C288.11 22.9349 287.784 23.0651 287.597 23.0977C287.508 23.1139 287.414 23.1261 287.316 23.1343C287.219 23.1424 287.121 23.1465 287.023 23.1465C286.73 23.1465 286.49 23.1058 286.303 23.0244C286.124 22.9512 285.982 22.8494 285.876 22.7192C285.778 22.5809 285.709 22.4263 285.668 22.2554C285.636 22.0845 285.62 21.9014 285.62 21.7061C285.62 21.5189 285.652 21.3236 285.717 21.1201C285.791 20.9085 285.843 20.6766 285.876 20.4243L286.218 17.751C284.989 18.6136 283.866 19.3786 282.849 20.0459C282.491 20.3307 282.137 20.6034 281.787 20.8638C281.437 21.1242 281.115 21.3561 280.822 21.5596C280.537 21.763 280.289 21.9258 280.078 22.0479C279.866 22.1618 279.724 22.2188 279.65 22.2188C279.496 22.2188 279.329 22.2106 279.15 22.1943C278.971 22.1781 278.804 22.1414 278.649 22.0845C278.503 22.0194 278.377 21.9299 278.271 21.8159C278.173 21.6938 278.125 21.5352 278.125 21.3398ZM281.823 14.0522C282.849 13.3605 283.915 12.6484 285.021 11.916C286.128 11.1755 287.247 10.443 288.378 9.71875C289.518 8.99447 290.649 8.28646 291.772 7.59473C292.903 6.89486 294.002 6.23975 295.068 5.62939C295.686 5.16553 296.162 4.73421 296.496 4.33545C296.83 3.93669 296.997 3.57861 296.997 3.26123C296.997 2.85433 296.687 2.53288 296.069 2.29688C295.45 2.05273 294.47 1.93066 293.127 1.93066C292.5 1.93066 291.874 2.05273 291.247 2.29688C290.62 2.53288 290.002 2.8584 289.392 3.27344C288.789 3.68848 288.203 4.17676 287.634 4.73828C287.064 5.29167 286.523 5.88574 286.01 6.52051C285.498 7.15527 285.017 7.81445 284.57 8.49805C284.122 9.1735 283.715 9.84082 283.349 10.5C282.991 11.1592 282.682 11.7939 282.421 12.4043C282.161 13.0146 281.962 13.564 281.823 14.0522Z" fill="#9A5D41"/>
</svg>
