<svg width="74" height="74" viewBox="0 0 74 74" fill="none" xmlns="http://www.w3.org/2000/svg">
<path fill-rule="evenodd" clip-rule="evenodd" d="M74 37C74 57.4345 57.4345 74 37 74C16.5655 74 0 57.4345 0 37C0 16.5655 16.5655 0 37 0C57.4345 0 74 16.5655 74 37ZM67.2729 37C67.2729 20.2808 53.7193 6.72729 37.0001 6.72729C20.2809 6.72729 6.72733 20.2808 6.72733 37C6.72733 53.7192 20.2809 67.2727 37.0001 67.2727C53.7193 67.2727 67.2729 53.7192 67.2729 37ZM53.8182 33.6361H31.6659L39.3784 25.9237L34.6215 21.1667L18.7884 36.9998L34.6215 52.8328L39.3784 48.0759L31.6659 40.3634H53.8182V33.6361Z" fill="#FFCC99"/>
</svg>
